STARTFONT 2.1
FONT --Helv24H-Regular-R-Normal--52-520-72-72-P-318-FONTSPECIFIC-0
SIZE 52 72 72
FONTBOUNDINGBOX 59 52 0 -9
METRICSSET 2
STARTPROPERTIES 19
FONT_ASCENT 43
FONT_DESCENT 9
PIXEL_SIZE 52
RESOLUTION_X 72
RESOLUTION_Y 72
POINT_SIZE 520
FACE_NAME "Modern 24-point H"
FOUNDRY ""
FAMILY_NAME "Helv24H"
WEIGHT_NAME "Regular"
RELATIVE_WEIGHT 50
SLANT "R"
SPACING "P"
SETWIDTH_NAME "Normal"
RELATIVE_SETWIDTH 50
ADD_STYLE_NAME ""
AVERAGE_WIDTH 318
CHARSET_REGISTRY "FONTSPECIFIC"
CHARSET_ENCODING "0"
ENDPROPERTIES
CHARS 194
STARTCHAR char08
ENCODING 8
SWIDTH 615 0
DWIDTH 32 0
BBX 26 35 3 0
VVECTOR 16 43
SWIDTH1 0 -1000
DWIDTH1 0 -52
BITMAP 
E0000000
E0000000
E0000000
E0000000
E0000000
E0000000
E0000000
E0000000
E0000000
E0000000
E0000000
E0000000
E0C00000
E1C00000
E3C00000
E7C00000
EFC00000
DFFFFFC0
DFFFFFC0
EFC00000
E7C00000
E3C00000
E1C00000
E0C00000
E0000000
E0000000
E0000000
E0000000
E0000000
E0000000
E0000000
E0000000
E0000000
E0000000
E0000000
ENDCHAR
STARTCHAR char09
ENCODING 9
SWIDTH 615 0
DWIDTH 32 0
BBX 26 35 3 0
VVECTOR 16 43
SWIDTH1 0 -1000
DWIDTH1 0 -52
BITMAP 
000001C0
000001C0
000001C0
000001C0
000001C0
000001C0
000001C0
000001C0
000001C0
000001C0
000001C0
000001C0
0000C1C0
0000E1C0
0000F1C0
0000F9C0
0000FDC0
FFFFFEC0
FFFFFEC0
0000FDC0
0000F9C0
0000F1C0
0000E1C0
0000C1C0
000001C0
000001C0
000001C0
000001C0
000001C0
000001C0
000001C0
000001C0
000001C0
000001C0
000001C0
ENDCHAR
STARTCHAR char0C
ENCODING 12
SWIDTH 885 0
DWIDTH 46 0
BBX 36 39 5 -1
VVECTOR 23 43
SWIDTH1 0 -1000
DWIDTH1 0 -52
BITMAP 
FFFFFFFFF0
FFFFFFFFF0
FFFFFFFFF0
F0000000F0
F0000000F0
F0000000F0
F0000000F0
F0000000F0
F0000000F0
F0000000F0
F0000000F0
F0000000F0
F0000000F0
F0000000F0
F0000000F0
F0000000F0
F0000000F0
F0000000F0
F0000000F0
F0000000F0
F0000000F0
F0000000F0
F0000000F0
F0000000F0
F0000000F0
F0000000F0
F0000000F0
F0000000F0
F0000000F0
F0006000F0
F000F000F0
F001F800F0
F003FC00F0
FE07FE07F0
000FFF0000
001FFF8000
003FFFC000
007FFFE000
00FFFFF000
ENDCHAR
STARTCHAR char0D
ENCODING 13
SWIDTH 885 0
DWIDTH 46 0
BBX 34 37 5 -1
VVECTOR 22 43
SWIDTH1 0 -1000
DWIDTH1 0 -52
BITMAP 
003FFFA000
003FFFF800
003FFFFE00
0000003F00
0000000F80
0000000780
00000007C0
00000003C0
00000003C0
00000003C0
00000003C0
00000003C0
00000003C0
00000003C0
00000003C0
00000003C0
00000003C0
00000003C0
00000003C0
00000003C0
00000003C0
00000003C0
00000003C0
00000003C0
03800003C0
07800007C0
0F80000780
1F80000F80
3F80003F00
7FFFFFFE00
FFFFFFF800
7FFFFFA000
3F80000000
1F80000000
0F80000000
0780000000
0380000000
ENDCHAR
STARTCHAR char1C
ENCODING 28
SWIDTH 615 0
DWIDTH 32 0
BBX 27 13 2 11
VVECTOR 16 43
SWIDTH1 0 -1000
DWIDTH1 0 -52
BITMAP 
03000000
07000000
0F000000
1F000000
3F000000
7FFFFFE0
FFFFFFE0
7FFFFFE0
3F000000
1F000000
0F000000
07000000
03000000
ENDCHAR
STARTCHAR char1D
ENCODING 29
SWIDTH 615 0
DWIDTH 32 0
BBX 27 13 3 11
VVECTOR 17 43
SWIDTH1 0 -1000
DWIDTH1 0 -52
BITMAP 
00001800
00001C00
00001E00
00001F00
00001F80
FFFFEFC0
FFFFFFE0
FFFFEFC0
00001F80
00001F00
00001E00
00001C00
00001800
ENDCHAR
STARTCHAR char1E
ENCODING 30
SWIDTH 615 0
DWIDTH 32 0
BBX 13 27 9 5
VVECTOR 16 43
SWIDTH1 0 -1000
DWIDTH1 0 -52
BITMAP 
0200
0700
0F80
1FC0
3FE0
7FF0
FFF8
FFF8
0700
0700
0700
0700
0700
0700
0700
0700
0700
0700
0700
0700
0700
0700
0700
0700
0700
0700
0700
ENDCHAR
STARTCHAR char1F
ENCODING 31
SWIDTH 615 0
DWIDTH 32 0
BBX 13 27 9 5
VVECTOR 16 43
SWIDTH1 0 -1000
DWIDTH1 0 -52
BITMAP 
0700
0700
0700
0700
0700
0700
0700
0700
0700
0700
0700
0700
0700
0700
0700
0700
0700
0700
0700
FFF8
FFF8
7FF0
3FE0
1FC0
0F80
0700
0200
ENDCHAR
STARTCHAR char20
ENCODING 32
SWIDTH 346 0
DWIDTH 18 0
BBX 0 0 10 -9
VVECTOR 10 -9
SWIDTH1 0 0
DWIDTH1 0 0
BITMAP 
ENDCHAR
STARTCHAR char21
ENCODING 33
SWIDTH 346 0
DWIDTH 18 0
BBX 5 36 6 0
VVECTOR 9 43
SWIDTH1 0 -1000
DWIDTH1 0 -52
BITMAP 
F8
F8
F8
F8
F8
F8
F8
F8
F8
F8
F8
F8
F8
F8
F8
F8
F8
F8
F8
F8
F8
F8
F8
F8
F8
F8
F8
F8
00
00
00
00
F8
F8
F8
F8
ENDCHAR
STARTCHAR char22
ENCODING 34
SWIDTH 423 0
DWIDTH 22 0
BBX 14 10 4 27
VVECTOR 11 43
SWIDTH1 0 -1000
DWIDTH1 0 -52
BITMAP 
F87C
F87C
F87C
F87C
F87C
F87C
F87C
F87C
F87C
F87C
ENDCHAR
STARTCHAR char23
ENCODING 35
SWIDTH 885 0
DWIDTH 46 0
BBX 37 34 4 2
VVECTOR 23 43
SWIDTH1 0 -1000
DWIDTH1 0 -52
BITMAP 
00003C03C0
00003C03C0
0000780780
0000780780
0000F00F00
0000F00F00
0001E01E00
0001E01E00
0003C03C00
0003C03C00
07FFFFFFF8
07FFFFFFF8
07FEFF7FF8
000F00F000
000F00F000
001E01E000
001E01E000
003C03C000
003C03C000
0078078000
0078078000
FFF7FBFF00
FFFFFFFF00
FFFFFFFF00
01E01E0000
01E01E0000
03C03C0000
03C03C0000
0780780000
0780780000
0F00F00000
0F00F00000
1E01E00000
1E01E00000
ENDCHAR
STARTCHAR char24
ENCODING 36
SWIDTH 615 0
DWIDTH 32 0
BBX 26 44 3 -4
VVECTOR 16 43
SWIDTH1 0 -1000
DWIDTH1 0 -52
BITMAP 
000C0000
000C0000
000C0000
000C0000
00BF4000
03FFF000
0FFFFC00
1FFFFE00
3F8C7F00
3E0C1F80
7C0C0F80
7C0C0FC0
7C0C07C0
7C0C07C0
7C0C0000
3E0C0000
3F0C0000
1F8C0000
0FEC0000
07F40000
03FC0000
00FF0000
007FC000
001FF000
000BFC00
000DFE00
000C7F00
000C1F80
000C0FC0
000C07C0
F80C07C0
F80C07C0
FC0C07C0
7C0C07C0
7E0C0F80
3F8C3F80
1FFFFF00
0FFFFE00
03FFF800
00BFA000
000C0000
000C0000
000C0000
000C0000
ENDCHAR
STARTCHAR char25
ENCODING 37
SWIDTH 885 0
DWIDTH 46 0
BBX 39 37 3 0
VVECTOR 23 43
SWIDTH1 0 -1000
DWIDTH1 0 -52
BITMAP 
03F0000000
0FFC000000
3E1F000000
78078000F0
70038001E0
F003C003C0
F003C00780
F003C00F00
F003C01E00
F003C03C00
F003C07800
F003C0F000
700381E000
780783C000
3E1F078000
0FFC0F0000
03F01E0000
00003C0000
0000780000
0000F01F80
0001E07FE0
0003C1F0F8
000783C03C
000F03801C
001E07801E
003C07801E
007807801E
00F007801E
01E007801E
03C007801E
078007801E
0F0007801E
000003801C
000003C03C
000001F0F8
0000007FE0
0000001F80
ENDCHAR
STARTCHAR char26
ENCODING 38
SWIDTH 673 0
DWIDTH 35 0
BBX 31 35 3 0
VVECTOR 19 43
SWIDTH1 0 -1000
DWIDTH1 0 -52
BITMAP 
00780000
01FE0000
07FF8000
0FFFC000
1F87E000
1F03E000
3E01F000
3E01F000
3E01F000
1E01E000
1F03E000
0F87C000
07CF8000
03FF0000
00FC0000
007C0000
01FE0000
07DF0000
0F8F8000
1F07C000
3E03E07C
7C01E07C
7801F0F8
F800F9F0
F8007FE0
F8003FC0
F8001F80
F8001F00
7C003F80
7E007FC0
3F81FBE0
1FFFF1F0
0FFFC0F8
03FF807C
00FE003E
ENDCHAR
STARTCHAR char27
ENCODING 39
SWIDTH 250 0
DWIDTH 13 0
BBX 5 10 4 27
VVECTOR 7 43
SWIDTH1 0 -1000
DWIDTH1 0 -52
BITMAP 
F8
F8
F8
F8
F8
F8
F8
F8
F8
F8
ENDCHAR
STARTCHAR char28
ENCODING 40
SWIDTH 346 0
DWIDTH 18 0
BBX 14 47 3 -8
VVECTOR 10 43
SWIDTH1 0 -1000
DWIDTH1 0 -52
BITMAP 
0030
007C
00F8
01F0
03E0
07C0
0780
0F00
0F00
1E00
1E00
3C00
3C00
7800
7800
7800
F000
F000
F000
F000
F000
F000
F000
F000
F000
F000
F000
F000
F000
F000
F000
7800
7800
7800
3C00
3C00
1E00
1E00
0F00
0F00
0780
07C0
03E0
01F0
00F8
007C
0030
ENDCHAR
STARTCHAR char29
ENCODING 41
SWIDTH 346 0
DWIDTH 18 0
BBX 14 47 1 -8
VVECTOR 8 43
SWIDTH1 0 -1000
DWIDTH1 0 -52
BITMAP 
3000
F800
7C00
3E00
1F00
0F80
0780
03C0
03C0
01E0
01E0
00F0
00F0
0078
0078
0078
003C
003C
003C
003C
003C
003C
003C
003C
003C
003C
003C
003C
003C
003C
003C
0078
0078
0078
00F0
00F0
01E0
01E0
03C0
03C0
0780
0F80
1F00
3E00
7C00
F800
3000
ENDCHAR
STARTCHAR char2A
ENCODING 42
SWIDTH 615 0
DWIDTH 32 0
BBX 19 14 7 19
VVECTOR 17 43
SWIDTH1 0 -1000
DWIDTH1 0 -52
BITMAP 
180300
3C0780
1E0F00
0F1E00
07BC00
03F800
FFFFE0
FFFFE0
03F800
07BC00
0F1E00
1E0F00
3C0780
180300
ENDCHAR
STARTCHAR char2B
ENCODING 43
SWIDTH 885 0
DWIDTH 46 0
BBX 38 35 4 0
VVECTOR 23 43
SWIDTH1 0 -1000
DWIDTH1 0 -52
BITMAP 
0000780000
0000780000
0000780000
0000780000
0000780000
0000780000
0000780000
0000780000
0000780000
0000780000
0000780000
0000780000
0000780000
0000780000
0000780000
0000780000
FFFFB7FFFC
FFFFFFFFFC
FFFFB7FFFC
0000780000
0000780000
0000780000
0000780000
0000780000
0000780000
0000780000
0000780000
0000780000
0000780000
0000780000
0000780000
0000780000
0000780000
0000780000
0000780000
ENDCHAR
STARTCHAR char2C
ENCODING 44
SWIDTH 192 0
DWIDTH 10 0
BBX 8 8 0 -4
VVECTOR 4 43
SWIDTH1 0 -1000
DWIDTH1 0 -52
BITMAP 
3F
3F
3E
3E
7C
7C
F8
F8
ENDCHAR
STARTCHAR char2D
ENCODING 45
SWIDTH 885 0
DWIDTH 46 0
BBX 38 3 4 16
VVECTOR 23 43
SWIDTH1 0 -1000
DWIDTH1 0 -52
BITMAP 
FFFFFFFFFC
FFFFFFFFFC
FFFFFFFFFC
ENDCHAR
STARTCHAR char2E
ENCODING 46
SWIDTH 192 0
DWIDTH 10 0
BBX 5 4 3 0
VVECTOR 6 43
SWIDTH1 0 -1000
DWIDTH1 0 -52
BITMAP 
F8
F8
F8
F8
ENDCHAR
STARTCHAR char2F
ENCODING 47
SWIDTH 346 0
DWIDTH 18 0
BBX 16 36 1 0
VVECTOR 9 43
SWIDTH1 0 -1000
DWIDTH1 0 -52
BITMAP 
0007
0007
0007
000E
000E
001C
001C
001C
0038
0038
0070
0070
0070
00E0
00E0
01C0
01C0
01C0
0380
0380
0380
0700
0700
0E00
0E00
0E00
1C00
1C00
3800
3800
3800
7000
7000
E000
E000
E000
ENDCHAR
STARTCHAR char30
ENCODING 48
SWIDTH 615 0
DWIDTH 32 0
BBX 25 35 3 0
VVECTOR 16 43
SWIDTH1 0 -1000
DWIDTH1 0 -52
BITMAP 
007F0000
01FFC000
07FFF000
1FFFFC00
3F80FE00
7E003F00
7C001F00
FC001F80
F8000F80
F8000F80
F8000F80
F8000F80
F8000F80
F8000F80
F8000F80
F8000F80
F8000F80
F8000F80
F8000F80
F8000F80
F8000F80
F8000F80
F8000F80
F8000F80
F8000F80
F8000F80
F8000F80
FC001F80
7C001F00
7E003F00
3F80FE00
1FFFFC00
07FFF000
01FFC000
007F0000
ENDCHAR
STARTCHAR char31
ENCODING 49
SWIDTH 615 0
DWIDTH 32 0
BBX 15 35 6 0
VVECTOR 14 43
SWIDTH1 0 -1000
DWIDTH1 0 -52
BITMAP 
003E
003E
003E
007E
00FE
07FE
FFFE
FFFE
FFFE
FFDE
003E
003E
003E
003E
003E
003E
003E
003E
003E
003E
003E
003E
003E
003E
003E
003E
003E
003E
003E
003E
003E
003E
003E
003E
003E
ENDCHAR
STARTCHAR char32
ENCODING 50
SWIDTH 615 0
DWIDTH 32 0
BBX 24 35 4 0
VVECTOR 16 43
SWIDTH1 0 -1000
DWIDTH1 0 -52
BITMAP 
00BE80
03FFE0
0FFFF8
1FFFFC
3F80FC
7E007E
7C003E
FC003F
F8001F
F8001F
00001F
00001F
00003E
00007E
0000FC
0001F8
0003F0
0007E0
000FC0
001F80
003F00
00FE00
01F800
03F000
07E000
0FC000
1F8000
3F0000
3E0000
7C0000
7C0000
FBFFFF
FFFFFF
FFFFFF
FFFFFF
ENDCHAR
STARTCHAR char33
ENCODING 51
SWIDTH 615 0
DWIDTH 32 0
BBX 25 35 3 0
VVECTOR 16 43
SWIDTH1 0 -1000
DWIDTH1 0 -52
BITMAP 
00BD0000
03FFC000
0FFFF000
1FFFF800
3F81FC00
7E007E00
7C003E00
F8001F00
F8001F00
F8001F00
00001F00
00001F00
00003E00
00003E00
0000FC00
007FF800
007FE000
007FF800
007FFE00
00007F00
00001F00
00001F80
00000F80
00000F80
00000F80
F8000F80
F8000F80
F8000F80
7C001F00
7E003F00
3F80FE00
1FFFFC00
0FFFF800
03FFE000
00BE8000
ENDCHAR
STARTCHAR char34
ENCODING 52
SWIDTH 615 0
DWIDTH 32 0
BBX 26 35 3 0
VVECTOR 16 43
SWIDTH1 0 -1000
DWIDTH1 0 -52
BITMAP 
0001F800
0003F800
0007F800
0007F800
000FF800
001F7800
001F7800
003EF800
007CF800
007CF800
00F8F800
00F8F800
01F0F800
03E0F800
03E0F800
07C0F800
0F80F800
0F80F800
1F00F800
3E00F800
3E00F800
7C00F800
FFFF7FC0
FFFFFFC0
FFFFFFC0
FFFFFFC0
0000F800
0000F800
0000F800
0000F800
0000F800
0000F800
0000F800
0000F800
0000F800
ENDCHAR
STARTCHAR char35
ENCODING 53
SWIDTH 615 0
DWIDTH 32 0
BBX 24 35 4 0
VVECTOR 16 43
SWIDTH1 0 -1000
DWIDTH1 0 -52
BITMAP 
7FFFF8
7FFFF8
7FFFF8
7BFFF8
7C0000
7C0000
7C0000
7C0000
7C0000
7C0000
7C0000
7C0000
7C0000
7CBD00
7BFFC0
7FFFF0
7FFFF8
7E01FC
78007E
00003E
00001F
00001F
00001F
00001F
00001F
F8001F
F8001F
F8001F
7C003E
7E007E
3F81FC
1FFFF8
0FFFF0
03FFC0
00BD00
ENDCHAR
STARTCHAR char36
ENCODING 54
SWIDTH 615 0
DWIDTH 32 0
BBX 25 35 4 0
VVECTOR 17 43
SWIDTH1 0 -1000
DWIDTH1 0 -52
BITMAP 
00BE8000
03FFE000
0FFFF800
1FFFFC00
3F80FE00
7E003E00
7C001F00
FC001F00
F8001F00
F8000000
F8000000
F8000000
F8000000
F82E8000
F8FFE000
FBFFF800
F7FFFC00
FF80FE00
FE003F00
FC001F00
F8000F80
F8000F80
F8000F80
F8000F80
F8000F80
F8000F80
F8000F80
F8000F80
7C001F00
7E003F00
3F80FE00
1FFFFC00
0FFFF800
03FFE000
00BE8000
ENDCHAR
STARTCHAR char37
ENCODING 55
SWIDTH 615 0
DWIDTH 32 0
BBX 25 35 3 0
VVECTOR 16 43
SWIDTH1 0 -1000
DWIDTH1 0 -52
BITMAP 
FFFFFF80
FFFFFF80
FFFFFF80
FFFFEF80
00001F00
00001F00
00003E00
00003E00
00007C00
00007C00
0000F800
0000F800
0001F000
0001F000
0003E000
0003E000
0007C000
0007C000
000F8000
000F8000
001F0000
001F0000
001F0000
003E0000
003E0000
003E0000
007C0000
007C0000
007C0000
00F80000
00F80000
00F80000
01F00000
01F00000
01F00000
ENDCHAR
STARTCHAR char38
ENCODING 56
SWIDTH 615 0
DWIDTH 32 0
BBX 25 35 3 0
VVECTOR 16 43
SWIDTH1 0 -1000
DWIDTH1 0 -52
BITMAP 
00BE8000
03FFE000
0FFFF800
1FFFFC00
3F80FE00
3E003E00
7C001F00
7C001F00
7C001F00
7C001F00
7C001F00
7C001F00
3E003E00
3F007E00
1FC1FC00
07FFF000
01FFC000
07FFF000
1FFFFC00
3F80FE00
7E003F00
7C001F00
F8000F80
F8000F80
F8000F80
F8000F80
F8000F80
F8000F80
7C001F00
7E003F00
3F80FE00
1FFFFC00
0FFFF800
03FFE000
00BE8000
ENDCHAR
STARTCHAR char39
ENCODING 57
SWIDTH 615 0
DWIDTH 32 0
BBX 25 35 3 0
VVECTOR 16 43
SWIDTH1 0 -1000
DWIDTH1 0 -52
BITMAP 
00BE8000
03FFE000
0FFFF800
1FFFFC00
3F80FE00
7E003F00
7C001F00
F8000F80
F8000F80
F8000F80
F8000F80
F8000F80
F8000F80
F8000F80
F8000F80
7C001F80
7E003F80
3F80FF80
1FFFF780
0FFFEF80
03FF8F80
00BA0F80
00000F80
00000F80
00000F80
00000F80
7C000F80
7C000F80
7C001F00
3E003F00
3F80FE00
1FFFFC00
0FFFF800
03FFE000
00BE8000
ENDCHAR
STARTCHAR char3A
ENCODING 58
SWIDTH 192 0
DWIDTH 10 0
BBX 5 24 3 0
VVECTOR 6 43
SWIDTH1 0 -1000
DWIDTH1 0 -52
BITMAP 
F8
F8
F8
F8
00
00
00
00
00
00
00
00
00
00
00
00
00
00
00
00
F8
F8
F8
F8
ENDCHAR
STARTCHAR char3B
ENCODING 59
SWIDTH 192 0
DWIDTH 10 0
BBX 8 28 0 -4
VVECTOR 4 43
SWIDTH1 0 -1000
DWIDTH1 0 -52
BITMAP 
1F
1F
1F
1F
00
00
00
00
00
00
00
00
00
00
00
00
00
00
00
00
3F
3F
3E
3E
7C
7C
F8
F8
ENDCHAR
STARTCHAR char3C
ENCODING 60
SWIDTH 615 0
DWIDTH 32 0
BBX 21 35 5 0
VVECTOR 16 43
SWIDTH1 0 -1000
DWIDTH1 0 -52
BITMAP 
000078
0000F0
0001E0
0003C0
000780
000F00
001E00
003C00
007800
00F000
01E000
03C000
078000
0F0000
1E0000
3C0000
780000
F00000
780000
3C0000
1E0000
0F0000
078000
03C000
01E000
00F000
007800
003C00
001E00
000F00
000780
0003C0
0001E0
0000F0
000078
ENDCHAR
STARTCHAR char3D
ENCODING 61
SWIDTH 885 0
DWIDTH 46 0
BBX 38 11 4 12
VVECTOR 23 43
SWIDTH1 0 -1000
DWIDTH1 0 -52
BITMAP 
FFFFFFFFFC
FFFFFFFFFC
FFFFFFFFFC
0000000000
0000000000
0000000000
0000000000
0000000000
FFFFFFFFFC
FFFFFFFFFC
FFFFFFFFFC
ENDCHAR
STARTCHAR char3E
ENCODING 62
SWIDTH 615 0
DWIDTH 32 0
BBX 21 35 6 0
VVECTOR 17 43
SWIDTH1 0 -1000
DWIDTH1 0 -52
BITMAP 
F00000
780000
3C0000
1E0000
0F0000
078000
03C000
01E000
00F000
007800
003C00
001E00
000F00
000780
0003C0
0001E0
0000F0
000078
0000F0
0001E0
0003C0
000780
000F00
001E00
003C00
007800
00F000
01E000
03C000
078000
0F0000
1E0000
3C0000
780000
F00000
ENDCHAR
STARTCHAR char3F
ENCODING 63
SWIDTH 615 0
DWIDTH 32 0
BBX 25 35 3 0
VVECTOR 16 43
SWIDTH1 0 -1000
DWIDTH1 0 -52
BITMAP 
005D0000
01FFC000
07FFF000
1FFFFC00
3F80FE00
3E003F00
7C001F00
7C001F80
F8000F80
F8000F80
F8000F80
00000F80
00001F00
00003F00
00007E00
0000FC00
0001F800
0003F000
0007E000
000FC000
001F8000
003F0000
001E0000
003E0000
003E0000
003E0000
003E0000
00000000
00000000
00000000
00000000
003E0000
003E0000
003E0000
003E0000
ENDCHAR
STARTCHAR char40
ENCODING 64
SWIDTH 885 0
DWIDTH 46 0
BBX 38 31 4 3
VVECTOR 23 43
SWIDTH1 0 -1000
DWIDTH1 0 -52
BITMAP 
001FFFE000
007FFFF800
01E0001E00
0780000780
0E000001C0
1C000000E0
3800000070
3800000070
7003FFE038
700FFFE038
E01FFEE01C
E01E01E01C
E03C01E01C
E03C01E01C
E03C01E01C
E03C01E01C
E03C03E01C
E03C07E01C
E03C0FE01C
E03E1EE038
E01FFC7078
700FF8FFF0
7003E03FC0
3800000000
3800000000
1C00000000
0E00000000
0780000000
01E0000000
007FFC0000
001FFC0000
ENDCHAR
STARTCHAR char41
ENCODING 65
SWIDTH 692 0
DWIDTH 36 0
BBX 34 36 1 0
VVECTOR 18 43
SWIDTH1 0 -1000
DWIDTH1 0 -52
BITMAP 
0003F00000
0003F00000
0007F80000
0007F80000
000FFC0000
000FFC0000
001F3E0000
001F3E0000
003E1F0000
003E1F0000
007C0F8000
007C0F8000
007C0F8000
00F807C000
00F807C000
01F003E000
01F003E000
01F003E000
03E001F000
03E001F000
07DFFEF800
07FFFFF800
07FFFFFC00
0FFFFFFC00
0F80007C00
1F00003E00
1F00003E00
1F00003E00
3E00001F00
3E00001F00
7C00000F80
7C00000F80
7C00000F80
F8000007C0
F8000007C0
F8000007C0
ENDCHAR
STARTCHAR char42
ENCODING 66
SWIDTH 731 0
DWIDTH 38 0
BBX 30 36 5 0
VVECTOR 20 43
SWIDTH1 0 -1000
DWIDTH1 0 -52
BITMAP 
FFFFE800
FFFFFE00
FFFFFF80
F7FFFFC0
F80007E0
F80001F0
F80001F0
F80000F8
F80000F8
F80000F8
F80000F8
F80000F8
F80000F8
F80001F0
F80001F0
F80007E0
F7FFFF80
FFFFFE00
FFFFFF80
F7FFFFE0
F80003F0
F80000F8
F80000F8
F800007C
F800007C
F800007C
F800007C
F800007C
F800007C
F80000F8
F80000F8
F80003F0
F7FFFFE0
FFFFFFC0
FFFFFF00
FFFFF400
ENDCHAR
STARTCHAR char43
ENCODING 67
SWIDTH 769 0
DWIDTH 40 0
BBX 34 36 3 0
VVECTOR 20 43
SWIDTH1 0 -1000
DWIDTH1 0 -52
BITMAP 
000BFA0000
003FFF8000
00FFFFE000
03FFFFF800
07F803FC00
0FE000FE00
1F80003F00
3F00001F80
3E00000F80
7E000007C0
7C000007C0
FC00000000
F800000000
F800000000
F800000000
F800000000
F800000000
F800000000
F800000000
F800000000
F800000000
F800000000
F800000000
F800000000
FC00000000
7C000007C0
7E000007C0
3E00000F80
3F00001F80
1F80003F00
0FE000FE00
07F803FC00
03FFFFF800
00FFFFE000
003FFF8000
000BFA0000
ENDCHAR
STARTCHAR char44
ENCODING 68
SWIDTH 788 0
DWIDTH 41 0
BBX 33 36 5 0
VVECTOR 22 43
SWIDTH1 0 -1000
DWIDTH1 0 -52
BITMAP 
FFFFE80000
FFFFFE0000
FFFFFF8000
F7FFFFE000
F8000FF000
F80003F800
F80000FC00
F800007E00
F800001E00
F800003F00
F800000F00
F800001F80
F800000F80
F800000F80
F800000F80
F800000F80
F800000F80
F800000F80
F800000F80
F800000F80
F800000F80
F800000F80
F800000F80
F800000F80
F800001F80
F800000F00
F800003F00
F800001E00
F800007E00
F80000FC00
F80003F800
F8000FF000
F7FFFFE000
FFFFFF8000
FFFFFE0000
FFFFE80000
ENDCHAR
STARTCHAR char45
ENCODING 69
SWIDTH 673 0
DWIDTH 35 0
BBX 28 36 5 0
VVECTOR 19 43
SWIDTH1 0 -1000
DWIDTH1 0 -52
BITMAP 
FFFFFFF0
FFFFFFF0
FFFFFFF0
F7FFFFF0
F8000000
F8000000
F8000000
F8000000
F8000000
F8000000
F8000000
F8000000
F8000000
F8000000
F8000000
F8000000
F7FFFF80
FFFFFF80
FFFFFF80
F7FFFF80
F8000000
F8000000
F8000000
F8000000
F8000000
F8000000
F8000000
F8000000
F8000000
F8000000
F8000000
F8000000
F7FFFFF0
FFFFFFF0
FFFFFFF0
FFFFFFF0
ENDCHAR
STARTCHAR char46
ENCODING 70
SWIDTH 654 0
DWIDTH 34 0
BBX 27 36 5 0
VVECTOR 19 43
SWIDTH1 0 -1000
DWIDTH1 0 -52
BITMAP 
FFFFFFE0
FFFFFFE0
FFFFFFE0
F7FFFFE0
F8000000
F8000000
F8000000
F8000000
F8000000
F8000000
F8000000
F8000000
F8000000
F8000000
F8000000
F8000000
F7FFFF00
FFFFFF00
FFFFFF00
F7FFFF00
F8000000
F8000000
F8000000
F8000000
F8000000
F8000000
F8000000
F8000000
F8000000
F8000000
F8000000
F8000000
F8000000
F8000000
F8000000
F8000000
ENDCHAR
STARTCHAR char47
ENCODING 71
SWIDTH 788 0
DWIDTH 41 0
BBX 35 36 3 0
VVECTOR 21 43
SWIDTH1 0 -1000
DWIDTH1 0 -52
BITMAP 
000BFA0000
003FFF8000
00FFFFE000
03FFFFF800
07F801FC00
0FE0007E00
1F80001F00
3F00000F80
3E00000F80
7E000007C0
7C000007C0
FC00000000
F800000000
F800000000
F800000000
F800000000
F800000000
F800000000
F800000000
F8000FFFE0
F8000FFFE0
F8000FFFE0
F8000FFDE0
F8000003E0
FC000003E0
7C000003E0
7E000003E0
3E000007E0
3F00000FE0
1F80001EE0
0FE0007DE0
07F801FBE0
03FFFFF3E0
00FFFFC3E0
003FFF03E0
000BF403E0
ENDCHAR
STARTCHAR char48
ENCODING 72
SWIDTH 788 0
DWIDTH 41 0
BBX 31 36 5 0
VVECTOR 21 43
SWIDTH1 0 -1000
DWIDTH1 0 -52
BITMAP 
F800003E
F800003E
F800003E
F800003E
F800003E
F800003E
F800003E
F800003E
F800003E
F800003E
F800003E
F800003E
F800003E
F800003E
F800003E
F7FFFFDE
FFFFFFFE
FFFFFFFE
F7FFFFDE
F800003E
F800003E
F800003E
F800003E
F800003E
F800003E
F800003E
F800003E
F800003E
F800003E
F800003E
F800003E
F800003E
F800003E
F800003E
F800003E
F800003E
ENDCHAR
STARTCHAR char49
ENCODING 73
SWIDTH 288 0
DWIDTH 15 0
BBX 5 36 5 0
VVECTOR 8 43
SWIDTH1 0 -1000
DWIDTH1 0 -52
BITMAP 
F8
F8
F8
F8
F8
F8
F8
F8
F8
F8
F8
F8
F8
F8
F8
F8
F8
F8
F8
F8
F8
F8
F8
F8
F8
F8
F8
F8
F8
F8
F8
F8
F8
F8
F8
F8
ENDCHAR
STARTCHAR char4A
ENCODING 74
SWIDTH 577 0
DWIDTH 30 0
BBX 23 36 2 0
VVECTOR 14 43
SWIDTH1 0 -1000
DWIDTH1 0 -52
BITMAP 
00003E
00003E
00003E
00003E
00003E
00003E
00003E
00003E
00003E
00003E
00003E
00003E
00003E
00003E
00003E
00003E
00003E
00003E
00003E
00003E
00003E
00003E
00003E
00003E
00003E
F8003E
F8003E
F8003E
F8003E
7C007C
7E00FC
3E82F8
1FFFF0
0FFFE0
03FF80
00BA00
ENDCHAR
STARTCHAR char4B
ENCODING 75
SWIDTH 731 0
DWIDTH 38 0
BBX 32 36 5 0
VVECTOR 21 43
SWIDTH1 0 -1000
DWIDTH1 0 -52
BITMAP 
F800007E
F80000FC
F80001F8
F80003F0
F80007E0
F8000FC0
F8001F80
F8003F00
F8007E00
F800FC00
F801F800
F803F000
F807E000
F80FC000
F81F8000
F83F0000
F87E0000
F8FC0000
F9FE0000
FBFF0000
F7DF8000
FF8FC000
FF07E000
FE03F000
FC01F800
F800FC00
F8007E00
F8003F00
F8001F80
F8000FC0
F80007E0
F80003F0
F80001F8
F80000FC
F800007E
F800003F
ENDCHAR
STARTCHAR char4C
ENCODING 76
SWIDTH 615 0
DWIDTH 32 0
BBX 25 36 5 0
VVECTOR 18 43
SWIDTH1 0 -1000
DWIDTH1 0 -52
BITMAP 
F8000000
F8000000
F8000000
F8000000
F8000000
F8000000
F8000000
F8000000
F8000000
F8000000
F8000000
F8000000
F8000000
F8000000
F8000000
F8000000
F8000000
F8000000
F8000000
F8000000
F8000000
F8000000
F8000000
F8000000
F8000000
F8000000
F8000000
F8000000
F8000000
F8000000
F8000000
F8000000
F7FFFF80
FFFFFF80
FFFFFF80
FFFFFF80
ENDCHAR
STARTCHAR char4D
ENCODING 77
SWIDTH 942 0
DWIDTH 49 0
BBX 39 36 5 0
VVECTOR 25 43
SWIDTH1 0 -1000
DWIDTH1 0 -52
BITMAP 
F80000003E
F80000003E
FC0000007E
FC0000007E
FE000000FE
FE000000FE
FF000001FE
FF000001FE
FF800003FE
FF800003FE
F7C00007DE
F7C00007DE
FBE0000FBE
FBE0000FBE
F9F0001F3E
F9F0001F3E
F8F8003E3E
F8F8003E3E
F87C007C3E
F87C007C3E
F83E00F83E
F83E00F83E
F81F01F03E
F81F01F03E
F80F83E03E
F80F83E03E
F807C7C03E
F807C7C03E
F803EF803E
F803EF803E
F801FF003E
F801FF003E
F800FE003E
F800FE003E
F8007C003E
F8007C003E
ENDCHAR
STARTCHAR char4E
ENCODING 78
SWIDTH 808 0
DWIDTH 42 0
BBX 32 36 5 0
VVECTOR 21 43
SWIDTH1 0 -1000
DWIDTH1 0 -52
BITMAP 
F000001F
F800001F
FC00001F
FE00001F
FF00001F
FF00001F
FF80001F
F7C0001F
F7E0001F
FBF0001F
F9F8001F
F8F8001F
F8FC001F
F87E001F
F83F001F
F81F801F
F80FC01F
F807C01F
F807E01F
F803F01F
F801F81F
F800FC1F
F8007E1F
F8003E1F
F8003F1F
F8001F9F
F8000FDF
F80007DF
F80003EF
F80001EF
F80000FF
F800007F
F800003F
F800001F
F800000F
F8000007
ENDCHAR
STARTCHAR char4F
ENCODING 79
SWIDTH 808 0
DWIDTH 42 0
BBX 36 36 3 0
VVECTOR 21 43
SWIDTH1 0 -1000
DWIDTH1 0 -52
BITMAP 
000BFD0000
003FFFC000
00FFFFF000
03FFFFFC00
07F801FE00
0FE0007F00
1F80001F80
3F00000FC0
3C000003C0
7E000007E0
78000001E0
FC000003F0
F8000001F0
F8000001F0
F8000001F0
F8000001F0
F8000001F0
F8000001F0
F8000001F0
F8000001F0
F8000001F0
F8000001F0
F8000001F0
F8000001F0
FC000003F0
78000001E0
7E000007E0
3C000003C0
3F00000FC0
1F80001F80
0FE0007F00
07F801FE00
03FFFFFC00
00FFFFF000
003FFFC000
000BFD0000
ENDCHAR
STARTCHAR char50
ENCODING 80
SWIDTH 692 0
DWIDTH 36 0
BBX 28 36 5 0
VVECTOR 19 43
SWIDTH1 0 -1000
DWIDTH1 0 -52
BITMAP 
FFFFD000
FFFFFC00
FFFFFF00
F7FFFF80
F8000FC0
F80003E0
F80003E0
F80001F0
F80001F0
F80001F0
F80001F0
F80001F0
F80001F0
F80001F0
F80003E0
F80003E0
F8000FC0
F7FFFF80
FFFFFF00
FFFFFC00
F7FFD000
F8000000
F8000000
F8000000
F8000000
F8000000
F8000000
F8000000
F8000000
F8000000
F8000000
F8000000
F8000000
F8000000
F8000000
F8000000
ENDCHAR
STARTCHAR char51
ENCODING 81
SWIDTH 808 0
DWIDTH 42 0
BBX 36 38 3 -2
VVECTOR 21 43
SWIDTH1 0 -1000
DWIDTH1 0 -52
BITMAP 
000BFD0000
003FFFC000
00FFFFF000
03FFFFFC00
07F801FE00
0FE0007F00
1F80001F80
3F00000FC0
3C000003C0
7E000007E0
78000001E0
FC000003F0
F8000001F0
F8000001F0
F8000001F0
F8000001F0
F8000001F0
F8000001F0
F8000001F0
F8000001F0
F8000001F0
F8000001F0
F8000001F0
F8000001F0
FC000603F0
78000F01E0
7E001F87E0
3C000FC3C0
3F0007EFC0
1F8003EF80
0FE001FF00
07F800FC00
03FFFFFF00
00FFFFEF80
003FFFCFC0
000BFD07E0
00000003E0
0000000180
ENDCHAR
STARTCHAR char52
ENCODING 82
SWIDTH 712 0
DWIDTH 37 0
BBX 30 36 5 0
VVECTOR 20 43
SWIDTH1 0 -1000
DWIDTH1 0 -52
BITMAP 
FFFFF400
FFFFFF00
FFFFFFC0
F7FFFFE0
F80007F0
F80001F0
F80000F8
F80000F8
F80000F8
F80000F8
F80000F8
F80000F8
F80000F8
F80000F0
F80001F0
F80007E0
F7FFFFC0
FFFFFE00
FFFFFF80
F7FFFFE0
F80007F0
F80001F0
F80001F8
F80000F8
F80000F8
F80000F8
F80000F8
F80000F8
F80000F8
F80000F8
F80000F8
F80000F8
F80000F8
F80000F8
F80000F8
F800007C
ENDCHAR
STARTCHAR char53
ENCODING 83
SWIDTH 654 0
DWIDTH 34 0
BBX 29 36 2 0
VVECTOR 17 43
SWIDTH1 0 -1000
DWIDTH1 0 -52
BITMAP 
002FA000
01FFFC00
07FFFF00
0FFFFF80
1FC01FC0
3F0007E0
3E0003E0
7C0001F0
7C0001F0
7C0000F8
7C0000F8
7C000000
3E000000
3F800000
1FE00000
0FFC0000
03FF8000
00FFF000
001FFC00
0003FF00
00007FC0
00000FE0
000003F0
000001F0
000000F8
F80000F8
F80000F8
FC0000F8
7C0000F8
7E0001F0
3F0003F0
1FC00FE0
0FFFFFC0
07FFFF80
01FFFE00
002FD000
ENDCHAR
STARTCHAR char54
ENCODING 84
SWIDTH 673 0
DWIDTH 35 0
BBX 31 36 2 0
VVECTOR 18 43
SWIDTH1 0 -1000
DWIDTH1 0 -52
BITMAP 
FFFFFFFE
FFFFFFFE
FFFFFFFE
FFFBBFFE
0007C000
0007C000
0007C000
0007C000
0007C000
0007C000
0007C000
0007C000
0007C000
0007C000
0007C000
0007C000
0007C000
0007C000
0007C000
0007C000
0007C000
0007C000
0007C000
0007C000
0007C000
0007C000
0007C000
0007C000
0007C000
0007C000
0007C000
0007C000
0007C000
0007C000
0007C000
0007C000
ENDCHAR
STARTCHAR char55
ENCODING 85
SWIDTH 769 0
DWIDTH 40 0
BBX 32 36 4 0
VVECTOR 20 43
SWIDTH1 0 -1000
DWIDTH1 0 -52
BITMAP 
F800001F
F800001F
F800001F
F800001F
F800001F
F800001F
F800001F
F800001F
F800001F
F800001F
F800001F
F800001F
F800001F
F800001F
F800001F
F800001F
F800001F
F800001F
F800001F
F800001F
F800001F
F800001F
F800001F
F800001F
F800001F
F800001F
F800001F
FC00003F
7C00003E
7E00007E
3F0000FC
1FC003F8
0FFFFFF0
07FFFFE0
01FFFF80
005FFA00
ENDCHAR
STARTCHAR char56
ENCODING 86
SWIDTH 712 0
DWIDTH 37 0
BBX 35 36 1 0
VVECTOR 19 43
SWIDTH1 0 -1000
DWIDTH1 0 -52
BITMAP 
F8000003E0
F8000003E0
7C000007C0
7C000007C0
7C000007C0
3E00000F80
3E00000F80
1F00001F00
1F00001F00
0F80003E00
0F80003E00
0F80003E00
07C0007C00
07C0007C00
03E000F800
03E000F800
01F001F000
01F001F000
01F001F000
00F803E000
00F803E000
007C07C000
007C07C000
003E0F8000
003E0F8000
003E0F8000
001F1F0000
001F1F0000
000FBE0000
000FBE0000
0007BC0000
0007FC0000
0003F80000
0003F80000
0001F00000
0001F00000
ENDCHAR
STARTCHAR char57
ENCODING 87
SWIDTH 1019 0
DWIDTH 53 0
BBX 51 36 1 0
VVECTOR 27 43
SWIDTH1 0 -1000
DWIDTH1 0 -52
BITMAP 
F80000000003E0
F80000000003E0
F80001F00003E0
7C0001F00007C0
7C0001F00007C0
7C0003F80007C0
3E0003F8000F80
3E0003F8000F80
3E0007FC000F80
1F0007FC001F00
1F0007BC001F00
1F000FBE001E00
0F800FBE003E00
0F800FBE003E00
0F801F1F003E00
07C01F1F007C00
07C01F1F007C00
07C03E0F807C00
03E03E0F80F800
03E03E0F80F800
03E07C07C0F800
01F07C07C1F000
01F07C07C1F000
01F0F803E1F000
00F8F803E3E000
00F8F803E3E000
00F8F001E3E000
007DF001F7C000
007DF001F7C000
007DE000F7C000
003DE000F78000
003FE000FF8000
003FC0007F8000
001FC0007F0000
001F80003F0000
001F80003F0000
ENDCHAR
STARTCHAR char58
ENCODING 88
SWIDTH 731 0
DWIDTH 38 0
BBX 36 36 1 0
VVECTOR 19 43
SWIDTH1 0 -1000
DWIDTH1 0 -52
BITMAP 
F8000001F0
7C000003E0
3E000007C0
1F00000F80
0F80001F00
0F80001F00
07C0003E00
03E0007C00
01F000F800
00F801F000
00F801F000
007C03E000
003E07C000
001F0F8000
000F9F0000
0007FE0000
0007FE0000
0003FC0000
0003FC0000
0007FE0000
0007FE0000
000F9F0000
001F0F8000
003E07C000
007C03E000
00F801F000
00F801F000
01F000F800
03E0007C00
07C0003E00
0F80001F00
0F80001F00
1F00000F80
3E000007C0
7C000003E0
F8000001F0
ENDCHAR
STARTCHAR char59
ENCODING 89
SWIDTH 712 0
DWIDTH 37 0
BBX 35 36 1 0
VVECTOR 19 43
SWIDTH1 0 -1000
DWIDTH1 0 -52
BITMAP 
F8000003E0
7C000007C0
3E00000F80
3E00000F80
1F00001F00
0F80003E00
07C0007C00
07C0007C00
03E000F800
01F001F000
00F803E000
00F803E000
007C07C000
003E0F8000
003E0F8000
001F1F0000
000FBE0000
000FBE0000
0007FC0000
0003F80000
0003F80000
0001F00000
0001F00000
0001F00000
0001F00000
0001F00000
0001F00000
0001F00000
0001F00000
0001F00000
0001F00000
0001F00000
0001F00000
0001F00000
0001F00000
0001F00000
ENDCHAR
STARTCHAR char5A
ENCODING 90
SWIDTH 596 0
DWIDTH 31 0
BBX 27 36 2 0
VVECTOR 16 43
SWIDTH1 0 -1000
DWIDTH1 0 -52
BITMAP 
7FFFFFE0
7FFFFFE0
7FFFFFE0
7FFFFBE0
000007C0
00000F80
00001F00
00001F00
00003E00
00007C00
00007C00
0000F800
0001F000
0001F000
0003E000
0007C000
000F8000
000F8000
001F0000
003E0000
007C0000
007C0000
00F80000
01F00000
03E00000
03E00000
07C00000
0F800000
1F000000
1F000000
3E000000
7C000000
FBFFFFE0
FFFFFFE0
FFFFFFE0
FFFFFFE0
ENDCHAR
STARTCHAR char5B
ENCODING 91
SWIDTH 346 0
DWIDTH 18 0
BBX 12 46 4 -7
VVECTOR 10 43
SWIDTH1 0 -1000
DWIDTH1 0 -52
BITMAP 
FFF0
FFF0
EFF0
F000
F000
F000
F000
F000
F000
F000
F000
F000
F000
F000
F000
F000
F000
F000
F000
F000
F000
F000
F000
F000
F000
F000
F000
F000
F000
F000
F000
F000
F000
F000
F000
F000
F000
F000
F000
F000
F000
F000
F000
EFF0
FFF0
FFF0
ENDCHAR
STARTCHAR char5C
ENCODING 92
SWIDTH 346 0
DWIDTH 18 0
BBX 16 36 1 0
VVECTOR 9 43
SWIDTH1 0 -1000
DWIDTH1 0 -52
BITMAP 
E000
E000
E000
7000
7000
3800
3800
3800
1C00
1C00
0E00
0E00
0E00
0700
0700
0380
0380
0380
01C0
01C0
01C0
00E0
00E0
0070
0070
0070
0038
0038
001C
001C
001C
000E
000E
0007
0007
0007
ENDCHAR
STARTCHAR char5D
ENCODING 93
SWIDTH 346 0
DWIDTH 18 0
BBX 12 46 2 -7
VVECTOR 8 43
SWIDTH1 0 -1000
DWIDTH1 0 -52
BITMAP 
FFF0
FFF0
FF70
00F0
00F0
00F0
00F0
00F0
00F0
00F0
00F0
00F0
00F0
00F0
00F0
00F0
00F0
00F0
00F0
00F0
00F0
00F0
00F0
00F0
00F0
00F0
00F0
00F0
00F0
00F0
00F0
00F0
00F0
00F0
00F0
00F0
00F0
00F0
00F0
00F0
00F0
00F0
00F0
FF70
FFF0
FFF0
ENDCHAR
STARTCHAR char5E
ENCODING 94
SWIDTH 615 0
DWIDTH 32 0
BBX 12 5 10 38
VVECTOR 16 43
SWIDTH1 0 -1000
DWIDTH1 0 -52
BITMAP 
0F00
1F80
39C0
70E0
E070
ENDCHAR
STARTCHAR char5F
ENCODING 95
SWIDTH 885 0
DWIDTH 46 0
BBX 46 3 0 -9
VVECTOR 23 43
SWIDTH1 0 -1000
DWIDTH1 0 -52
BITMAP 
FFFFFFFFFFFC
FFFFFFFFFFFC
FFFFFFFFFFFC
ENDCHAR
STARTCHAR char60
ENCODING 96
SWIDTH 615 0
DWIDTH 32 0
BBX 8 5 12 38
VVECTOR 16 43
SWIDTH1 0 -1000
DWIDTH1 0 -52
BITMAP 
F0
78
3C
1E
0F
ENDCHAR
STARTCHAR char61
ENCODING 97
SWIDTH 538 0
DWIDTH 28 0
BBX 22 26 2 0
VVECTOR 13 43
SWIDTH1 0 -1000
DWIDTH1 0 -52
BITMAP 
00BA00
03FF80
0FFFE0
1FFFF0
3F03F8
7E00F8
7C00FC
7C007C
00007C
00007C
0003FC
001FFC
00FFBC
03FC7C
0FE07C
3F807C
7E007C
FC007C
F8007C
F8007C
F800FC
FC03FC
7E0FBC
7FFF7C
1FFC7C
07F07C
ENDCHAR
STARTCHAR char62
ENCODING 98
SWIDTH 596 0
DWIDTH 31 0
BBX 25 36 4 0
VVECTOR 17 43
SWIDTH1 0 -1000
DWIDTH1 0 -52
BITMAP 
F8000000
F8000000
F8000000
F8000000
F8000000
F8000000
F8000000
F8000000
F8000000
F8000000
F83F8000
F8FFE000
FBFFF800
F7FFFC00
FF80FE00
FE003F00
FC001F00
F8001F00
F8000F80
F8000F80
F8000F80
F8000F80
F8000F80
F8000F80
F8000F80
F8000F80
F8000F80
F8000F80
F8001F00
FC001F00
FE003E00
FF80FE00
F7FFFC00
FBFFF800
F8FFE000
F83F8000
ENDCHAR
STARTCHAR char63
ENCODING 99
SWIDTH 558 0
DWIDTH 29 0
BBX 25 26 2 0
VVECTOR 15 43
SWIDTH1 0 -1000
DWIDTH1 0 -52
BITMAP 
005E8000
01FFE000
07FFF800
0FFFFC00
1FC0FE00
3F003E00
3E001F00
7C001F00
7C000F80
F8000F80
F8000000
F8000000
F8000000
F8000000
F8000000
F8000000
F8000F80
7C000F80
7C001F00
3E001F00
3F003E00
1FC0FE00
0FFFFC00
07FFF800
01FFE000
005E8000
ENDCHAR
STARTCHAR char64
ENCODING 100
SWIDTH 596 0
DWIDTH 31 0
BBX 25 36 2 0
VVECTOR 15 43
SWIDTH1 0 -1000
DWIDTH1 0 -52
BITMAP 
00000F80
00000F80
00000F80
00000F80
00000F80
00000F80
00000F80
00000F80
00000F80
00000F80
00FE0F80
03FF8F80
0FFFEF80
1FFFF780
3F80FF80
3E003F80
7C001F80
7C000F80
F8000F80
F8000F80
F8000F80
F8000F80
F8000F80
F8000F80
F8000F80
F8000F80
F8000F80
F8000F80
7C000F80
7C001F80
3E003F80
3F80FF80
1FFFF780
0FFFEF80
03FF8F80
00FE0F80
ENDCHAR
STARTCHAR char65
ENCODING 101
SWIDTH 558 0
DWIDTH 29 0
BBX 25 26 2 0
VVECTOR 15 43
SWIDTH1 0 -1000
DWIDTH1 0 -52
BITMAP 
005D0000
01FFC000
07FFF000
0FFFF800
1FC1FC00
3F007E00
3E003E00
7C001F00
7C001F00
F8000F80
F8000F80
F8000F80
F7FFF780
FFFFFF80
FFFFFF80
F8000000
F8000000
7C000000
7C001F00
3E001F00
3F003E00
1FC0FC00
0FFFF800
07FFF000
01FFC000
005D0000
ENDCHAR
STARTCHAR char66
ENCODING 102
SWIDTH 327 0
DWIDTH 17 0
BBX 13 36 2 0
VVECTOR 9 43
SWIDTH1 0 -1000
DWIDTH1 0 -52
BITMAP 
00F8
03F8
07F8
07F8
0FC0
0F80
0F80
0F80
0F80
0F80
0F80
0F80
F778
FFF8
FFF8
F778
0F80
0F80
0F80
0F80
0F80
0F80
0F80
0F80
0F80
0F80
0F80
0F80
0F80
0F80
0F80
0F80
0F80
0F80
0F80
0F80
ENDCHAR
STARTCHAR char67
ENCODING 103
SWIDTH 596 0
DWIDTH 31 0
BBX 25 35 2 -9
VVECTOR 15 43
SWIDTH1 0 -1000
DWIDTH1 0 -52
BITMAP 
00FE0F80
03FF8F80
0FFFEF80
1FFFF780
3F80FF80
3E003F80
7C001F80
7C000F80
F8000F80
F8000F80
F8000F80
F8000F80
F8000F80
F8000F80
F8000F80
F8000F80
F8000F80
F8000F80
7C000F80
7C001F80
3E003F80
3F80FF80
1FFFF780
0FFFEF80
03FF8F80
00FE0F80
00000F80
00001F00
3E001F00
3E003E00
1F00FE00
1FFFFC00
0FFFF800
03FFE000
00BE8000
ENDCHAR
STARTCHAR char68
ENCODING 104
SWIDTH 615 0
DWIDTH 32 0
BBX 24 36 4 0
VVECTOR 16 43
SWIDTH1 0 -1000
DWIDTH1 0 -52
BITMAP 
F80000
F80000
F80000
F80000
F80000
F80000
F80000
F80000
F80000
F80000
F83F80
F8FFE0
FBFFF8
F7FFFC
FF81FE
FE007E
FC003F
F8003F
F8001F
F8001F
F8001F
F8001F
F8001F
F8001F
F8001F
F8001F
F8001F
F8001F
F8001F
F8001F
F8001F
F8001F
F8001F
F8001F
F8001F
F8001F
ENDCHAR
STARTCHAR char69
ENCODING 105
SWIDTH 288 0
DWIDTH 15 0
BBX 5 36 5 0
VVECTOR 8 43
SWIDTH1 0 -1000
DWIDTH1 0 -52
BITMAP 
F8
F8
F8
F8
00
00
00
00
00
00
F8
F8
F8
F8
F8
F8
F8
F8
F8
F8
F8
F8
F8
F8
F8
F8
F8
F8
F8
F8
F8
F8
F8
F8
F8
F8
ENDCHAR
STARTCHAR char6A
ENCODING 106
SWIDTH 250 0
DWIDTH 13 0
BBX 9 45 0 -9
VVECTOR 5 43
SWIDTH1 0 -1000
DWIDTH1 0 -52
BITMAP 
0F80
0F80
0F80
0F80
0000
0000
0000
0000
0000
0000
0F80
0F80
0F80
0F80
0F80
0F80
0F80
0F80
0F80
0F80
0F80
0F80
0F80
0F80
0F80
0F80
0F80
0F80
0F80
0F80
0F80
0F80
0F80
0F80
0F80
0F80
0F80
0F80
0F80
0F80
1F80
FF00
FF00
FE00
F800
ENDCHAR
STARTCHAR char6B
ENCODING 107
SWIDTH 577 0
DWIDTH 30 0
BBX 25 36 4 0
VVECTOR 17 43
SWIDTH1 0 -1000
DWIDTH1 0 -52
BITMAP 
F8000000
F8000000
F8000000
F8000000
F8000000
F8000000
F8000000
F8000000
F8000000
F8000000
F8003F00
F8007E00
F800FC00
F801F800
F803F000
F807E000
F80FC000
F81F8000
F83F0000
F87E0000
F8FC0000
F9F80000
FBF00000
F7F80000
FFFC0000
FF7E0000
FE3F0000
FC1F8000
F80FC000
F807E000
F803F000
F801F800
F800FC00
F8007E00
F8003F00
F8001F80
ENDCHAR
STARTCHAR char6C
ENCODING 108
SWIDTH 288 0
DWIDTH 15 0
BBX 5 36 5 0
VVECTOR 8 43
SWIDTH1 0 -1000
DWIDTH1 0 -52
BITMAP 
F8
F8
F8
F8
F8
F8
F8
F8
F8
F8
F8
F8
F8
F8
F8
F8
F8
F8
F8
F8
F8
F8
F8
F8
F8
F8
F8
F8
F8
F8
F8
F8
F8
F8
F8
F8
ENDCHAR
STARTCHAR char6D
ENCODING 109
SWIDTH 904 0
DWIDTH 47 0
BBX 39 26 4 0
VVECTOR 24 43
SWIDTH1 0 -1000
DWIDTH1 0 -52
BITMAP 
F83C003E00
F8FF00FFC0
FBFFC3FFF0
F7FFE7FFF8
FF87F7C3FC
FE01FF00FC
FC00FE007E
F800FC007E
F8007C003E
F8007C003E
F8007C003E
F8007C003E
F8007C003E
F8007C003E
F8007C003E
F8007C003E
F8007C003E
F8007C003E
F8007C003E
F8007C003E
F8007C003E
F8007C003E
F8007C003E
F8007C003E
F8007C003E
F8007C003E
ENDCHAR
STARTCHAR char6E
ENCODING 110
SWIDTH 615 0
DWIDTH 32 0
BBX 24 26 4 0
VVECTOR 16 43
SWIDTH1 0 -1000
DWIDTH1 0 -52
BITMAP 
F83F80
F8FFE0
FBFFF8
F7FFFC
FF81FE
FE007E
FC003F
F8003F
F8001F
F8001F
F8001F
F8001F
F8001F
F8001F
F8001F
F8001F
F8001F
F8001F
F8001F
F8001F
F8001F
F8001F
F8001F
F8001F
F8001F
F8001F
ENDCHAR
STARTCHAR char6F
ENCODING 111
SWIDTH 577 0
DWIDTH 30 0
BBX 26 26 2 0
VVECTOR 15 43
SWIDTH1 0 -1000
DWIDTH1 0 -52
BITMAP 
005E8000
01FFE000
07FFF800
0FFFFC00
1FC0FE00
3F003F00
3E001F00
7C000F80
7C000F80
F80007C0
F80007C0
F80007C0
F80007C0
F80007C0
F80007C0
F80007C0
F80007C0
7C000F80
7C000F80
3E001F00
3F003F00
1FC0FE00
0FFFFC00
07FFF800
01FFE000
005E8000
ENDCHAR
STARTCHAR char70
ENCODING 112
SWIDTH 596 0
DWIDTH 31 0
BBX 25 35 4 -9
VVECTOR 17 43
SWIDTH1 0 -1000
DWIDTH1 0 -52
BITMAP 
F83F8000
F8FFE000
FBFFF800
F7FFFC00
FF80FE00
FE003E00
FC001F00
F8001F00
F8000F80
F8000F80
F8000F80
F8000F80
F8000F80
F8000F80
F8000F80
F8000F80
F8000F80
F8000F80
F8001F00
FC001F00
FE003E00
FF80FE00
F7FFFC00
FBFFF800
F8FFE000
F83F8000
F8000000
F8000000
F8000000
F8000000
F8000000
F8000000
F8000000
F8000000
F8000000
ENDCHAR
STARTCHAR char71
ENCODING 113
SWIDTH 596 0
DWIDTH 31 0
BBX 25 35 2 -9
VVECTOR 15 43
SWIDTH1 0 -1000
DWIDTH1 0 -52
BITMAP 
00FE0F80
03FF8F80
0FFFEF80
1FFFF780
3F80FF80
3E003F80
7C001F80
7C000F80
F8000F80
F8000F80
F8000F80
F8000F80
F8000F80
F8000F80
F8000F80
F8000F80
F8000F80
F8000F80
7C000F80
7C001F80
3E003F80
3F80FF80
1FFFF780
0FFFEF80
03FF8F80
00FE0F80
00000F80
00000F80
00000F80
00000F80
00000F80
00000F80
00000F80
00000F80
00000F80
ENDCHAR
STARTCHAR char72
ENCODING 114
SWIDTH 385 0
DWIDTH 20 0
BBX 14 26 4 0
VVECTOR 11 43
SWIDTH1 0 -1000
DWIDTH1 0 -52
BITMAP 
F87C
F9FC
FBFC
F7FC
FFC0
FF00
FE00
FC00
FC00
F800
F800
F800
F800
F800
F800
F800
F800
F800
F800
F800
F800
F800
F800
F800
F800
F800
ENDCHAR
STARTCHAR char73
ENCODING 115
SWIDTH 500 0
DWIDTH 26 0
BBX 22 26 2 0
VVECTOR 13 43
SWIDTH1 0 -1000
DWIDTH1 0 -52
BITMAP 
00BA00
03FF80
0FFFE0
1FFFF0
3F01F8
3E00F8
7C007C
7C007C
7C0000
7E0000
3F8000
1FF000
07FE00
01FFC0
003FF0
0007F8
0000FC
00007C
F8007C
F8007C
7C00F8
7E01F8
3FFFF0
1FFFE0
07FF80
017A00
ENDCHAR
STARTCHAR char74
ENCODING 116
SWIDTH 327 0
DWIDTH 17 0
BBX 13 33 2 0
VVECTOR 9 43
SWIDTH1 0 -1000
DWIDTH1 0 -52
BITMAP 
0F80
0F80
0F80
0F80
0F80
0F80
0F80
F778
FFF8
FFF8
F778
0F80
0F80
0F80
0F80
0F80
0F80
0F80
0F80
0F80
0F80
0F80
0F80
0F80
0F80
0F80
0F80
0F80
0FC0
07F8
07F8
03F8
00F8
ENDCHAR
STARTCHAR char75
ENCODING 117
SWIDTH 615 0
DWIDTH 32 0
BBX 24 26 4 0
VVECTOR 16 43
SWIDTH1 0 -1000
DWIDTH1 0 -52
BITMAP 
F8001F
F8001F
F8001F
F8001F
F8001F
F8001F
F8001F
F8001F
F8001F
F8001F
F8001F
F8001F
F8001F
F8001F
F8001F
F8001F
F8001F
F8001F
FC001F
7C003F
7E007F
3F81FF
1FFFEF
0FFFDF
03FF1F
00FC1F
ENDCHAR
STARTCHAR char76
ENCODING 118
SWIDTH 558 0
DWIDTH 29 0
BBX 27 26 1 0
VVECTOR 15 43
SWIDTH1 0 -1000
DWIDTH1 0 -52
BITMAP 
F80003E0
F80003E0
7C0007C0
7C0007C0
7C0007C0
3E000F80
3E000F80
1F001F00
1F001F00
0F803E00
0F803E00
0F803E00
07C07C00
07C07C00
03E0F800
03E0F800
01E0F000
01F1F000
00F1E000
00F1E000
007BC000
007BC000
003B8000
003F8000
001F0000
001F0000
ENDCHAR
STARTCHAR char77
ENCODING 119
SWIDTH 865 0
DWIDTH 45 0
BBX 43 26 1 0
VVECTOR 23 43
SWIDTH1 0 -1000
DWIDTH1 0 -52
BITMAP 
F800000003E0
F800000003E0
F8001F0003E0
7C001F0007C0
7C003F8007C0
7C003F8007C0
3E007FC00F80
3E007BC00F80
3E007BC00F80
1F00FBE01F00
1F00F1E01F00
1F01F1F01F00
0F81F1F03E00
0F83E0F83E00
0F83E0F83E00
07C3C0787C00
07C7C07C7C00
07C7803C7C00
03C7803C7800
03EF001EF800
01EF001EF000
01EF001EF000
00FE000FE000
00FE000FE000
007C0007C000
007C0007C000
ENDCHAR
STARTCHAR char78
ENCODING 120
SWIDTH 596 0
DWIDTH 31 0
BBX 29 26 1 0
VVECTOR 16 43
SWIDTH1 0 -1000
DWIDTH1 0 -52
BITMAP 
FC0001F8
7E0003F0
3F0007E0
1F800FC0
0FC01F80
07E03F00
03F07E00
01F8FC00
00FDF800
007FF000
003FE000
001FC000
000F8000
000F8000
001FC000
003FE000
007FF000
00FDF800
01F8FC00
03F07E00
07E03F00
0FC01F80
1F800FC0
3F0007E0
7E0003F0
FC0001F8
ENDCHAR
STARTCHAR char79
ENCODING 121
SWIDTH 615 0
DWIDTH 32 0
BBX 30 35 1 -9
VVECTOR 16 43
SWIDTH1 0 -1000
DWIDTH1 0 -52
BITMAP 
F800007C
F800007C
7C0000F8
7C0000F8
3E0001F0
3E0001F0
1F0003E0
1F0003E0
0F8007C0
0F8007C0
07C00F80
07C00F80
03E01F00
03E01F00
01F03E00
01F03E00
00F87C00
00F87C00
007CF800
007CF800
003DF000
003DF000
001FE000
001FE000
000FC000
000FC000
000F8000
000F8000
001F0000
001F0000
007E0000
0FFE0000
0FFC0000
0FF80000
0FE00000
ENDCHAR
STARTCHAR char7A
ENCODING 122
SWIDTH 538 0
DWIDTH 28 0
BBX 22 26 3 0
VVECTOR 14 43
SWIDTH1 0 -1000
DWIDTH1 0 -52
BITMAP 
FFFFFC
FFFFFC
FFFFFC
FFFEFC
0001F8
0003F0
0007E0
000FC0
001F80
001F00
003F00
007E00
00FC00
01F800
03F000
07E000
07C000
0FC000
1F8000
3F0000
7E0000
FC0000
FBFFFC
FFFFFC
FFFFFC
FFFFFC
ENDCHAR
STARTCHAR char7B
ENCODING 123
SWIDTH 346 0
DWIDTH 18 0
BBX 14 47 2 -8
VVECTOR 9 43
SWIDTH1 0 -1000
DWIDTH1 0 -52
BITMAP 
007C
01FC
03FC
03C0
0780
0780
0780
0780
0780
0780
0780
0780
0780
0780
0780
0780
0780
0780
0F80
0F00
1F00
3E00
7C00
F800
7C00
3E00
1F00
0F00
0F80
0780
0780
0780
0780
0780
0780
0780
0780
0780
0780
0780
0780
0780
0780
03C0
03FC
01FC
007C
ENDCHAR
STARTCHAR char7C
ENCODING 124
SWIDTH 192 0
DWIDTH 10 0
BBX 4 45 3 -6
VVECTOR 5 43
SWIDTH1 0 -1000
DWIDTH1 0 -52
BITMAP 
F0
F0
F0
F0
F0
F0
F0
F0
F0
F0
F0
F0
F0
F0
F0
F0
F0
F0
F0
F0
F0
F0
F0
F0
F0
F0
F0
F0
F0
F0
F0
F0
F0
F0
F0
F0
F0
F0
F0
F0
F0
F0
F0
F0
F0
ENDCHAR
STARTCHAR char7D
ENCODING 125
SWIDTH 346 0
DWIDTH 18 0
BBX 14 47 2 -8
VVECTOR 9 43
SWIDTH1 0 -1000
DWIDTH1 0 -52
BITMAP 
F800
FE00
FF00
0F00
0780
0780
0780
0780
0780
0780
0780
0780
0780
0780
0780
0780
0780
0780
07C0
03C0
03E0
01F0
00F8
007C
00F8
01F0
03E0
03C0
07C0
0780
0780
0780
0780
0780
0780
0780
0780
0780
0780
0780
0780
0780
0780
0F00
FF00
FE00
F800
ENDCHAR
STARTCHAR char7E
ENCODING 126
SWIDTH 615 0
DWIDTH 32 0
BBX 18 5 7 38
VVECTOR 16 43
SWIDTH1 0 -1000
DWIDTH1 0 -52
BITMAP 
0F00C0
3FC1C0
73F380
E0FF00
C03C00
ENDCHAR
STARTCHAR char7F
ENCODING 127
SWIDTH 0 0
DWIDTH 0 0
BBX 0 0 5 -9
VVECTOR 5 -9
SWIDTH1 0 0
DWIDTH1 0 0
BITMAP 
ENDCHAR
STARTCHAR char80
ENCODING 128
SWIDTH 692 0
DWIDTH 36 0
BBX 34 43 1 0
VVECTOR 18 43
SWIDTH1 0 -1000
DWIDTH1 0 -52
BITMAP 
00F003C000
00F003C000
00F003C000
0000000000
0000000000
0000000000
0000000000
0003F00000
0003F00000
0007F80000
0007F80000
000FFC0000
000FFC0000
001F3E0000
001F3E0000
003E1F0000
003E1F0000
007C0F8000
007C0F8000
007C0F8000
00F807C000
00F807C000
01F003E000
01F003E000
01F003E000
03E001F000
03E001F000
07DFFEF800
07FFFFF800
07FFFFFC00
0FFFFFFC00
0F80007C00
1F00003E00
1F00003E00
1F00003E00
3E00001F00
3E00001F00
7C00000F80
7C00000F80
7C00000F80
F8000007C0
F8000007C0
F8000007C0
ENDCHAR
STARTCHAR char81
ENCODING 129
SWIDTH 692 0
DWIDTH 36 0
BBX 34 43 1 0
VVECTOR 18 43
SWIDTH1 0 -1000
DWIDTH1 0 -52
BITMAP 
0001E00000
0006180000
000C0C0000
000C0C0000
000C0C0000
000C0C0000
0006180000
0003F00000
0003F00000
0007F80000
0007F80000
000FFC0000
000FFC0000
001F3E0000
001F3E0000
003E1F0000
003E1F0000
007C0F8000
007C0F8000
007C0F8000
00F807C000
00F807C000
01F003E000
01F003E000
01F003E000
03E001F000
03E001F000
07DFFEF800
07FFFFF800
07FFFFFC00
0FFFFFFC00
0F80007C00
1F00003E00
1F00003E00
1F00003E00
3E00001F00
3E00001F00
7C00000F80
7C00000F80
7C00000F80
F8000007C0
F8000007C0
F8000007C0
ENDCHAR
STARTCHAR char82
ENCODING 130
SWIDTH 769 0
DWIDTH 40 0
BBX 34 45 3 -9
VVECTOR 20 43
SWIDTH1 0 -1000
DWIDTH1 0 -52
BITMAP 
000BFA0000
003FFF8000
00FFFFE000
03FFFFF800
07F803FC00
0FE000FE00
1F80003F00
3F00001F80
3E00000F80
7E000007C0
7C000007C0
FC00000000
F800000000
F800000000
F800000000
F800000000
F800000000
F800000000
F800000000
F800000000
F800000000
F800000000
F800000000
F800000000
FC00000000
7C000007C0
7E000007C0
3E00000F80
3F00001F80
1F80003F00
0FE000FE00
07F803FC00
03FFFFF800
00FFFFE000
003FFF8000
000BFA0000
0000000000
0000000000
0000F00000
0000F00000
0000F00000
0000300000
0000300000
0000300000
0001E00000
ENDCHAR
STARTCHAR char83
ENCODING 131
SWIDTH 673 0
DWIDTH 35 0
BBX 28 43 5 0
VVECTOR 19 43
SWIDTH1 0 -1000
DWIDTH1 0 -52
BITMAP 
00007800
0000F000
0001E000
0003C000
00000000
00000000
00000000
FFFFFFF0
FFFFFFF0
FFFFFFF0
F7FFFFF0
F8000000
F8000000
F8000000
F8000000
F8000000
F8000000
F8000000
F8000000
F8000000
F8000000
F8000000
F8000000
F7FFFF80
FFFFFF80
FFFFFF80
F7FFFF80
F8000000
F8000000
F8000000
F8000000
F8000000
F8000000
F8000000
F8000000
F8000000
F8000000
F8000000
F8000000
F7FFFFF0
FFFFFFF0
FFFFFFF0
FFFFFFF0
ENDCHAR
STARTCHAR char84
ENCODING 132
SWIDTH 808 0
DWIDTH 42 0
BBX 32 43 5 0
VVECTOR 21 43
SWIDTH1 0 -1000
DWIDTH1 0 -52
BITMAP 
000F00C0
003FC1C0
0073F380
00E0FF00
00C03C00
00000000
00000000
F000001F
F800001F
FC00001F
FE00001F
FF00001F
FF00001F
FF80001F
F7C0001F
F7E0001F
FBF0001F
F9F8001F
F8F8001F
F8FC001F
F87E001F
F83F001F
F81F801F
F80FC01F
F807C01F
F807E01F
F803F01F
F801F81F
F800FC1F
F8007E1F
F8003E1F
F8003F1F
F8001F9F
F8000FDF
F80007DF
F80003EF
F80001EF
F80000FF
F800007F
F800003F
F800001F
F800000F
F8000007
ENDCHAR
STARTCHAR char85
ENCODING 133
SWIDTH 808 0
DWIDTH 42 0
BBX 36 43 3 0
VVECTOR 21 43
SWIDTH1 0 -1000
DWIDTH1 0 -52
BITMAP 
00F000F000
00F000F000
00F000F000
0000000000
0000000000
0000000000
0000000000
000BFD0000
003FFFC000
00FFFFF000
03FFFFFC00
07F801FE00
0FE0007F00
1F80001F80
3F00000FC0
3C000003C0
7E000007E0
78000001E0
FC000003F0
F8000001F0
F8000001F0
F8000001F0
F8000001F0
F8000001F0
F8000001F0
F8000001F0
F8000001F0
F8000001F0
F8000001F0
F8000001F0
F8000001F0
FC000003F0
78000001E0
7E000007E0
3C000003C0
3F00000FC0
1F80001F80
0FE0007F00
07F801FE00
03FFFFFC00
00FFFFF000
003FFFC000
000BFD0000
ENDCHAR
STARTCHAR char86
ENCODING 134
SWIDTH 769 0
DWIDTH 40 0
BBX 32 43 4 0
VVECTOR 20 43
SWIDTH1 0 -1000
DWIDTH1 0 -52
BITMAP 
03C003C0
03C003C0
03C003C0
00000000
00000000
00000000
00000000
F800001F
F800001F
F800001F
F800001F
F800001F
F800001F
F800001F
F800001F
F800001F
F800001F
F800001F
F800001F
F800001F
F800001F
F800001F
F800001F
F800001F
F800001F
F800001F
F800001F
F800001F
F800001F
F800001F
F800001F
F800001F
F800001F
F800001F
FC00003F
7C00003E
7E00007E
3F0000FC
1FC003F8
0FFFFFF0
07FFFFE0
01FFFF80
005FFA00
ENDCHAR
STARTCHAR char87
ENCODING 135
SWIDTH 538 0
DWIDTH 28 0
BBX 22 35 2 0
VVECTOR 13 43
SWIDTH1 0 -1000
DWIDTH1 0 -52
BITMAP 
0003C0
000780
000F00
001E00
003C00
000000
000000
000000
000000
00BA00
03FF80
0FFFE0
1FFFF0
3F03F8
7E00F8
7C00FC
7C007C
00007C
00007C
0003FC
001FFC
00FFBC
03FC7C
0FE07C
3F807C
7E007C
FC007C
F8007C
F8007C
F800FC
FC03FC
7E0FBC
7FFF7C
1FFC7C
07F07C
ENDCHAR
STARTCHAR char88
ENCODING 136
SWIDTH 538 0
DWIDTH 28 0
BBX 22 35 2 0
VVECTOR 13 43
SWIDTH1 0 -1000
DWIDTH1 0 -52
BITMAP 
078000
03C000
01E000
00F000
007800
000000
000000
000000
000000
00BA00
03FF80
0FFFE0
1FFFF0
3F03F8
7E00F8
7C00FC
7C007C
00007C
00007C
0003FC
001FFC
00FFBC
03FC7C
0FE07C
3F807C
7E007C
FC007C
F8007C
F8007C
F800FC
FC03FC
7E0FBC
7FFF7C
1FFC7C
07F07C
ENDCHAR
STARTCHAR char89
ENCODING 137
SWIDTH 538 0
DWIDTH 28 0
BBX 22 35 2 0
VVECTOR 13 43
SWIDTH1 0 -1000
DWIDTH1 0 -52
BITMAP 
003C00
007E00
00E700
01C380
0381C0
000000
000000
000000
000000
00BA00
03FF80
0FFFE0
1FFFF0
3F03F8
7E00F8
7C00FC
7C007C
00007C
00007C
0003FC
001FFC
00FFBC
03FC7C
0FE07C
3F807C
7E007C
FC007C
F8007C
F8007C
F800FC
FC03FC
7E0FBC
7FFF7C
1FFC7C
07F07C
ENDCHAR
STARTCHAR char8A
ENCODING 138
SWIDTH 538 0
DWIDTH 28 0
BBX 22 33 2 0
VVECTOR 13 43
SWIDTH1 0 -1000
DWIDTH1 0 -52
BITMAP 
0783C0
0783C0
0783C0
000000
000000
000000
000000
00BA00
03FF80
0FFFE0
1FFFF0
3F03F8
7E00F8
7C00FC
7C007C
00007C
00007C
0003FC
001FFC
00FFBC
03FC7C
0FE07C
3F807C
7E007C
FC007C
F8007C
F8007C
F800FC
FC03FC
7E0FBC
7FFF7C
1FFC7C
07F07C
ENDCHAR
STARTCHAR char8B
ENCODING 139
SWIDTH 538 0
DWIDTH 28 0
BBX 22 35 2 0
VVECTOR 13 43
SWIDTH1 0 -1000
DWIDTH1 0 -52
BITMAP 
03C030
0FF070
1CFCE0
383FC0
300F00
000000
000000
000000
000000
00BA00
03FF80
0FFFE0
1FFFF0
3F03F8
7E00F8
7C00FC
7C007C
00007C
00007C
0003FC
001FFC
00FFBC
03FC7C
0FE07C
3F807C
7E007C
FC007C
F8007C
F8007C
F800FC
FC03FC
7E0FBC
7FFF7C
1FFC7C
07F07C
ENDCHAR
STARTCHAR char8C
ENCODING 140
SWIDTH 538 0
DWIDTH 28 0
BBX 22 38 2 0
VVECTOR 13 43
SWIDTH1 0 -1000
DWIDTH1 0 -52
BITMAP 
003C00
00C300
018180
018180
018180
018180
00C300
003C00
000000
000000
000000
000000
00BA00
03FF80
0FFFE0
1FFFF0
3F03F8
7E00F8
7C00FC
7C007C
00007C
00007C
0003FC
001FFC
00FFBC
03FC7C
0FE07C
3F807C
7E007C
FC007C
F8007C
F8007C
F800FC
FC03FC
7E0FBC
7FFF7C
1FFC7C
07F07C
ENDCHAR
STARTCHAR char8D
ENCODING 141
SWIDTH 558 0
DWIDTH 29 0
BBX 25 35 2 -9
VVECTOR 15 43
SWIDTH1 0 -1000
DWIDTH1 0 -52
BITMAP 
005E8000
01FFE000
07FFF800
0FFFFC00
1FC0FE00
3F003E00
3E001F00
7C001F00
7C000F80
F8000F80
F8000000
F8000000
F8000000
F8000000
F8000000
F8000000
F8000F80
7C000F80
7C001F00
3E001F00
3F003E00
1FC0FE00
0FFFFC00
07FFF800
01FFE000
005E8000
00000000
00000000
001F0000
001F0000
001F0000
00030000
00030000
00030000
001E0000
ENDCHAR
STARTCHAR char8E
ENCODING 142
SWIDTH 558 0
DWIDTH 29 0
BBX 25 35 2 0
VVECTOR 15 43
SWIDTH1 0 -1000
DWIDTH1 0 -52
BITMAP 
0001E000
0003C000
00078000
000F0000
001E0000
00000000
00000000
00000000
00000000
005D0000
01FFC000
07FFF000
0FFFF800
1FC1FC00
3F007E00
3E003E00
7C001F00
7C001F00
F8000F80
F8000F80
F8000F80
F7FFF780
FFFFFF80
FFFFFF80
F8000000
F8000000
7C000000
7C001F00
3E001F00
3F003E00
1FC0FC00
0FFFF800
07FFF000
01FFC000
005D0000
ENDCHAR
STARTCHAR char8F
ENCODING 143
SWIDTH 558 0
DWIDTH 29 0
BBX 25 35 2 0
VVECTOR 15 43
SWIDTH1 0 -1000
DWIDTH1 0 -52
BITMAP 
01E00000
00F00000
00780000
003C0000
001E0000
00000000
00000000
00000000
00000000
005D0000
01FFC000
07FFF000
0FFFF800
1FC1FC00
3F007E00
3E003E00
7C001F00
7C001F00
F8000F80
F8000F80
F8000F80
F7FFF780
FFFFFF80
FFFFFF80
F8000000
F8000000
7C000000
7C001F00
3E001F00
3F003E00
1FC0FC00
0FFFF800
07FFF000
01FFC000
005D0000
ENDCHAR
STARTCHAR char90
ENCODING 144
SWIDTH 558 0
DWIDTH 29 0
BBX 25 35 2 0
VVECTOR 15 43
SWIDTH1 0 -1000
DWIDTH1 0 -52
BITMAP 
001C0000
003E0000
00770000
00E38000
01C1C000
00000000
00000000
00000000
00000000
005D0000
01FFC000
07FFF000
0FFFF800
1FC1FC00
3F007E00
3E003E00
7C001F00
7C001F00
F8000F80
F8000F80
F8000F80
F7FFF780
FFFFFF80
FFFFFF80
F8000000
F8000000
7C000000
7C001F00
3E001F00
3F003E00
1FC0FC00
0FFFF800
07FFF000
01FFC000
005D0000
ENDCHAR
STARTCHAR char91
ENCODING 145
SWIDTH 558 0
DWIDTH 29 0
BBX 25 33 2 0
VVECTOR 15 43
SWIDTH1 0 -1000
DWIDTH1 0 -52
BITMAP 
0780F000
0780F000
0780F000
00000000
00000000
00000000
00000000
005D0000
01FFC000
07FFF000
0FFFF800
1FC1FC00
3F007E00
3E003E00
7C001F00
7C001F00
F8000F80
F8000F80
F8000F80
F7FFF780
FFFFFF80
FFFFFF80
F8000000
F8000000
7C000000
7C001F00
3E001F00
3F003E00
1FC0FC00
0FFFF800
07FFF000
01FFC000
005D0000
ENDCHAR
STARTCHAR char92
ENCODING 146
SWIDTH 288 0
DWIDTH 15 0
BBX 8 35 5 0
VVECTOR 9 43
SWIDTH1 0 -1000
DWIDTH1 0 -52
BITMAP 
0F
1E
3C
78
F0
00
00
00
00
F8
F8
F8
F8
F8
F8
F8
F8
F8
F8
F8
F8
F8
F8
F8
F8
F8
F8
F8
F8
F8
F8
F8
F8
F8
F8
ENDCHAR
STARTCHAR char93
ENCODING 147
SWIDTH 288 0
DWIDTH 15 0
BBX 8 35 2 0
VVECTOR 6 43
SWIDTH1 0 -1000
DWIDTH1 0 -52
BITMAP 
F0
78
3C
1E
0F
00
00
00
00
1F
1F
1F
1F
1F
1F
1F
1F
1F
1F
1F
1F
1F
1F
1F
1F
1F
1F
1F
1F
1F
1F
1F
1F
1F
1F
ENDCHAR
STARTCHAR char94
ENCODING 148
SWIDTH 288 0
DWIDTH 15 0
BBX 11 35 2 0
VVECTOR 8 43
SWIDTH1 0 -1000
DWIDTH1 0 -52
BITMAP 
0E00
1F00
3B80
71C0
E0E0
0000
0000
0000
0000
1F00
1F00
1F00
1F00
1F00
1F00
1F00
1F00
1F00
1F00
1F00
1F00
1F00
1F00
1F00
1F00
1F00
1F00
1F00
1F00
1F00
1F00
1F00
1F00
1F00
1F00
ENDCHAR
STARTCHAR char95
ENCODING 149
SWIDTH 288 0
DWIDTH 15 0
BBX 11 33 2 0
VVECTOR 8 43
SWIDTH1 0 -1000
DWIDTH1 0 -52
BITMAP 
F1E0
F1E0
F1E0
0000
0000
0000
0000
1F00
1F00
1F00
1F00
1F00
1F00
1F00
1F00
1F00
1F00
1F00
1F00
1F00
1F00
1F00
1F00
1F00
1F00
1F00
1F00
1F00
1F00
1F00
1F00
1F00
1F00
ENDCHAR
STARTCHAR char96
ENCODING 150
SWIDTH 615 0
DWIDTH 32 0
BBX 24 35 4 0
VVECTOR 16 43
SWIDTH1 0 -1000
DWIDTH1 0 -52
BITMAP 
01E018
07F838
0E7E70
1C1FE0
180780
000000
000000
000000
000000
F83F80
F8FFE0
FBFFF8
F7FFFC
FF81FE
FE007E
FC003F
F8003F
F8001F
F8001F
F8001F
F8001F
F8001F
F8001F
F8001F
F8001F
F8001F
F8001F
F8001F
F8001F
F8001F
F8001F
F8001F
F8001F
F8001F
F8001F
ENDCHAR
STARTCHAR char97
ENCODING 151
SWIDTH 577 0
DWIDTH 30 0
BBX 26 35 2 0
VVECTOR 15 43
SWIDTH1 0 -1000
DWIDTH1 0 -52
BITMAP 
0001E000
0003C000
00078000
000F0000
001E0000
00000000
00000000
00000000
00000000
005E8000
01FFE000
07FFF800
0FFFFC00
1FC0FE00
3F003F00
3E001F00
7C000F80
7C000F80
F80007C0
F80007C0
F80007C0
F80007C0
F80007C0
F80007C0
F80007C0
F80007C0
7C000F80
7C000F80
3E001F00
3F003F00
1FC0FE00
0FFFFC00
07FFF800
01FFE000
005E8000
ENDCHAR
STARTCHAR char98
ENCODING 152
SWIDTH 577 0
DWIDTH 30 0
BBX 26 35 2 0
VVECTOR 15 43
SWIDTH1 0 -1000
DWIDTH1 0 -52
BITMAP 
01E00000
00F00000
00780000
003C0000
001E0000
00000000
00000000
00000000
00000000
005E8000
01FFE000
07FFF800
0FFFFC00
1FC0FE00
3F003F00
3E001F00
7C000F80
7C000F80
F80007C0
F80007C0
F80007C0
F80007C0
F80007C0
F80007C0
F80007C0
F80007C0
7C000F80
7C000F80
3E001F00
3F003F00
1FC0FE00
0FFFFC00
07FFF800
01FFE000
005E8000
ENDCHAR
STARTCHAR char99
ENCODING 153
SWIDTH 577 0
DWIDTH 30 0
BBX 26 35 2 0
VVECTOR 15 43
SWIDTH1 0 -1000
DWIDTH1 0 -52
BITMAP 
001E0000
003F0000
00738000
00E1C000
01C0E000
00000000
00000000
00000000
00000000
005E8000
01FFE000
07FFF800
0FFFFC00
1FC0FE00
3F003F00
3E001F00
7C000F80
7C000F80
F80007C0
F80007C0
F80007C0
F80007C0
F80007C0
F80007C0
F80007C0
F80007C0
7C000F80
7C000F80
3E001F00
3F003F00
1FC0FE00
0FFFFC00
07FFF800
01FFE000
005E8000
ENDCHAR
STARTCHAR char9A
ENCODING 154
SWIDTH 577 0
DWIDTH 30 0
BBX 26 33 2 0
VVECTOR 15 43
SWIDTH1 0 -1000
DWIDTH1 0 -52
BITMAP 
03C0F000
03C0F000
03C0F000
00000000
00000000
00000000
00000000
005E8000
01FFE000
07FFF800
0FFFFC00
1FC0FE00
3F003F00
3E001F00
7C000F80
7C000F80
F80007C0
F80007C0
F80007C0
F80007C0
F80007C0
F80007C0
F80007C0
F80007C0
7C000F80
7C000F80
3E001F00
3F003F00
1FC0FE00
0FFFFC00
07FFF800
01FFE000
005E8000
ENDCHAR
STARTCHAR char9B
ENCODING 155
SWIDTH 577 0
DWIDTH 30 0
BBX 26 35 2 0
VVECTOR 15 43
SWIDTH1 0 -1000
DWIDTH1 0 -52
BITMAP 
00F00C00
03FC1C00
073F3800
0E0FF000
0C03C000
00000000
00000000
00000000
00000000
005E8000
01FFE000
07FFF800
0FFFFC00
1FC0FE00
3F003F00
3E001F00
7C000F80
7C000F80
F80007C0
F80007C0
F80007C0
F80007C0
F80007C0
F80007C0
F80007C0
F80007C0
7C000F80
7C000F80
3E001F00
3F003F00
1FC0FE00
0FFFFC00
07FFF800
01FFE000
005E8000
ENDCHAR
STARTCHAR char9C
ENCODING 156
SWIDTH 615 0
DWIDTH 32 0
BBX 24 35 4 0
VVECTOR 16 43
SWIDTH1 0 -1000
DWIDTH1 0 -52
BITMAP 
0003C0
000780
000F00
001E00
003C00
000000
000000
000000
000000
F8001F
F8001F
F8001F
F8001F
F8001F
F8001F
F8001F
F8001F
F8001F
F8001F
F8001F
F8001F
F8001F
F8001F
F8001F
F8001F
F8001F
F8001F
FC001F
7C003F
7E007F
3F81FF
1FFFEF
0FFFDF
03FF1F
00FC1F
ENDCHAR
STARTCHAR char9D
ENCODING 157
SWIDTH 615 0
DWIDTH 32 0
BBX 24 35 4 0
VVECTOR 16 43
SWIDTH1 0 -1000
DWIDTH1 0 -52
BITMAP 
01E000
00F000
007800
003C00
001E00
000000
000000
000000
000000
F8001F
F8001F
F8001F
F8001F
F8001F
F8001F
F8001F
F8001F
F8001F
F8001F
F8001F
F8001F
F8001F
F8001F
F8001F
F8001F
F8001F
F8001F
FC001F
7C003F
7E007F
3F81FF
1FFFEF
0FFFDF
03FF1F
00FC1F
ENDCHAR
STARTCHAR char9E
ENCODING 158
SWIDTH 615 0
DWIDTH 32 0
BBX 24 35 4 0
VVECTOR 16 43
SWIDTH1 0 -1000
DWIDTH1 0 -52
BITMAP 
003C00
007E00
00E700
01C380
0381C0
000000
000000
000000
000000
F8001F
F8001F
F8001F
F8001F
F8001F
F8001F
F8001F
F8001F
F8001F
F8001F
F8001F
F8001F
F8001F
F8001F
F8001F
F8001F
F8001F
F8001F
FC001F
7C003F
7E007F
3F81FF
1FFFEF
0FFFDF
03FF1F
00FC1F
ENDCHAR
STARTCHAR char9F
ENCODING 159
SWIDTH 635 0
DWIDTH 33 0
BBX 25 33 4 0
VVECTOR 17 43
SWIDTH1 0 -1000
DWIDTH1 0 -52
BITMAP 
0780F000
0780F000
0780F000
00000000
00000000
00000000
00000000
F8000F80
F8000F80
F8000F80
F8000F80
F8000F80
F8000F80
F8000F80
F8000F80
F8000F80
F8000F80
F8000F80
F8000F80
F8000F80
F8000F80
F8000F80
F8000F80
F8000F80
F8000F80
FC000F80
7C001F80
7E003F80
3F80FF80
1FFFF780
0FFFEF80
03FF8F80
00FE0F80
ENDCHAR
STARTCHAR charA0
ENCODING 160
SWIDTH 615 0
DWIDTH 32 0
BBX 25 39 3 -2
VVECTOR 16 43
SWIDTH1 0 -1000
DWIDTH1 0 -52
BITMAP 
001C0000
001C0000
001C0000
001C0000
001C0000
001C0000
001C0000
001C0000
FFFFFF80
FFFFFF80
001C0000
001C0000
001C0000
001C0000
001C0000
001C0000
001C0000
001C0000
001C0000
001C0000
001C0000
001C0000
001C0000
001C0000
001C0000
001C0000
001C0000
001C0000
001C0000
001C0000
001C0000
001C0000
001C0000
001C0000
001C0000
001C0000
001C0000
001C0000
001C0000
ENDCHAR
STARTCHAR charA1
ENCODING 161
SWIDTH 346 0
DWIDTH 18 0
BBX 12 10 3 28
VVECTOR 9 43
SWIDTH1 0 -1000
DWIDTH1 0 -52
BITMAP 
0F00
3FC0
70E0
E070
E070
E070
E070
70E0
3FC0
0F00
ENDCHAR
STARTCHAR charA2
ENCODING 162
SWIDTH 615 0
DWIDTH 32 0
BBX 26 34 3 1
VVECTOR 16 43
SWIDTH1 0 -1000
DWIDTH1 0 -52
BITMAP 
00040000
00040000
00040000
00040000
00040000
002E8000
00FFE000
03FFF800
0FFBFE00
1FC47F00
3F041F80
3E040F80
7C0407C0
7C0407C0
F8040000
F8040000
F8040000
F8040000
F8040000
F8040000
7C0407C0
7C0407C0
3E040F80
3F041F80
1FC47F00
0FFBFE00
03FFF800
00FFE000
002E8000
00040000
00040000
00040000
00040000
00040000
ENDCHAR
STARTCHAR charA3
ENCODING 163
SWIDTH 615 0
DWIDTH 32 0
BBX 27 36 2 -1
VVECTOR 16 43
SWIDTH1 0 -1000
DWIDTH1 0 -52
BITMAP 
000F8000
003FE000
00FFF800
01FFFC00
03F07E00
03E03E00
07C01F00
07C01F00
07C00000
07C00000
07C00000
07C00000
03E00000
03E00000
03E00000
03E00000
7DDFC000
7FFFC000
7FFFC000
01F00000
01F00000
01F00000
01F00000
01F00000
03E00000
03E00000
03E00000
03E00000
07C00000
07C00180
07C007E0
0FBFFFE0
3FFFFFC0
FFFFFF00
7FFFF800
34000000
ENDCHAR
STARTCHAR charA4
ENCODING 164
SWIDTH 346 0
DWIDTH 18 0
BBX 16 38 1 -2
VVECTOR 9 43
SWIDTH1 0 -1000
DWIDTH1 0 -52
BITMAP 
07E0
1FF8
3C3C
781E
700E
700E
7000
7800
3C00
1E00
0F00
1F80
3FC0
79E0
70F0
E078
E03C
E01E
E00E
7007
7807
3C07
1E07
0F0E
079E
03FC
01F8
00F0
0038
001C
000E
000E
700E
700E
781E
3C3C
1FF8
07E0
ENDCHAR
STARTCHAR charA5
ENCODING 165
SWIDTH 346 0
DWIDTH 18 0
BBX 11 9 3 13
VVECTOR 9 43
SWIDTH1 0 -1000
DWIDTH1 0 -52
BITMAP 
1F00
7FC0
FFE0
FFE0
FFE0
FFE0
FFE0
7FC0
1F00
ENDCHAR
STARTCHAR charA6
ENCODING 166
SWIDTH 615 0
DWIDTH 32 0
BBX 26 38 3 -2
VVECTOR 16 43
SWIDTH1 0 -1000
DWIDTH1 0 -52
BITMAP 
03F07FC0
0FF07FC0
3E707000
78707000
F0707000
E0707000
E0707000
E0707000
E0707000
E0707000
E0707000
E0707000
E0707000
70707000
3C707000
1FF07000
07F07000
00707000
00707000
00707000
00707000
00707000
00707000
00707000
00707000
00707000
00707000
00707000
00707000
00707000
00707000
00707000
00707000
00707000
00707000
00707000
00707000
00707000
ENDCHAR
STARTCHAR charA7
ENCODING 167
SWIDTH 654 0
DWIDTH 34 0
BBX 26 36 4 0
VVECTOR 17 43
SWIDTH1 0 -1000
DWIDTH1 0 -52
BITMAP 
017F4000
07FFF000
1FFFFC00
3FFFFE00
7F007F00
7C001F00
F8000F80
F8000F80
F8000F80
F8000F80
F8000F80
F8000F80
F8000F80
F8001F00
F8003F00
F800FE00
F83FF800
F83FE000
F83FFC00
F83FFF00
F8003F80
F8000F80
F80007C0
F80007C0
F80007C0
F80007C0
F80007C0
F80007C0
F80007C0
F80007C0
F8000F80
F8003F80
F87FFF00
F87FFE00
F87FF800
F87FE000
ENDCHAR
STARTCHAR charA8
ENCODING 168
SWIDTH 885 0
DWIDTH 46 0
BBX 38 31 4 3
VVECTOR 23 43
SWIDTH1 0 -1000
DWIDTH1 0 -52
BITMAP 
001FFFE000
007FFFF800
01E0001E00
0780000780
0E000001C0
1C000000E0
3800000070
3800000070
7000000038
7007FC0038
E007FF001C
E00707801C
E00703801C
E00703801C
E00707801C
E007FF001C
E007FC001C
E0071C001C
E0070E001C
E00707001C
E00703801C
700701C038
7000000038
3800000070
3800000070
1C000000E0
0E000001C0
0780000780
01E0001E00
007FFFF800
001FFFE000
ENDCHAR
STARTCHAR charA9
ENCODING 169
SWIDTH 885 0
DWIDTH 46 0
BBX 38 31 4 3
VVECTOR 23 43
SWIDTH1 0 -1000
DWIDTH1 0 -52
BITMAP 
001FFFE000
007FFFF800
01E0001E00
0780000780
0E000001C0
1C000000E0
3800000070
3800000070
7000000038
7000FE0038
E003FF801C
E00783C01C
E00F01C01C
E00E01C01C
E00E00001C
E00E00001C
E00E00001C
E00E01C01C
E00F01C01C
E00783C01C
E003FF801C
7000FE0038
7000000038
3800000070
3800000070
1C000000E0
0E000001C0
0780000780
01E0001E00
007FFFF800
001FFFE000
ENDCHAR
STARTCHAR charAA
ENCODING 170
SWIDTH 615 0
DWIDTH 32 0
BBX 24 7 3 29
VVECTOR 15 43
SWIDTH1 0 -1000
DWIDTH1 0 -52
BITMAP 
FFD803
0C1C07
0C1E0F
0C1B1B
0C19B3
0C18E3
0C1843
ENDCHAR
STARTCHAR charAB
ENCODING 171
SWIDTH 615 0
DWIDTH 32 0
BBX 8 5 13 38
VVECTOR 17 43
SWIDTH1 0 -1000
DWIDTH1 0 -52
BITMAP 
0F
1E
3C
78
F0
ENDCHAR
STARTCHAR charAC
ENCODING 172
SWIDTH 615 0
DWIDTH 32 0
BBX 17 3 7 40
VVECTOR 16 43
SWIDTH1 0 -1000
DWIDTH1 0 -52
BITMAP 
F00780
F00780
F00780
ENDCHAR
STARTCHAR charAD
ENCODING 173
SWIDTH 885 0
DWIDTH 46 0
BBX 38 23 4 6
VVECTOR 23 43
SWIDTH1 0 -1000
DWIDTH1 0 -52
BITMAP 
0000000600
0000000C00
0000001800
0000003000
0000006000
000000C000
FFFFFFBFFC
FFFFFFFFFC
FFFFF7FFFC
00000C0000
0000180000
0000300000
0000600000
0000C00000
FFFFBFFFFC
FFFFFFFFFC
FFF7FFFFFC
000C000000
0018000000
0030000000
0060000000
00C0000000
0180000000
ENDCHAR
STARTCHAR charAE
ENCODING 174
SWIDTH 1019 0
DWIDTH 53 0
BBX 50 36 1 0
VVECTOR 26 43
SWIDTH1 0 -1000
DWIDTH1 0 -52
BITMAP 
0000FFFFFFFFC0
0000FFFFFFFFC0
0001FFFFFFFFC0
0001FFBBFFFFC0
0003E07C000000
0003E07C000000
0007C07C000000
0007C07C000000
000F807C000000
000F807C000000
001F007C000000
001F007C000000
003E007C000000
003E007C000000
007C007C000000
007C007BFFFF00
00F8007FFFFF00
00F8007FFFFF00
01F0007BFFFF00
01F0007C000000
03EFFFBC000000
03FFFFFC000000
07FFFFFC000000
07FFFFBC000000
07C0007C000000
0F80007C000000
0F80007C000000
1F00007C000000
1F00007C000000
3E00007C000000
3E00007C000000
3E00007C000000
7C00007BFFFFC0
7C00007FFFFFC0
F800007FFFFFC0
F800007FFFFFC0
ENDCHAR
STARTCHAR charAF
ENCODING 175
SWIDTH 808 0
DWIDTH 42 0
BBX 36 36 3 0
VVECTOR 21 43
SWIDTH1 0 -1000
DWIDTH1 0 -52
BITMAP 
000BFD0600
003FFFC600
00FFFFEC00
03FFFFF800
07F801FE00
0FE0007F00
1F8000DF80
3F00018FC0
3C000183C0
7E000307E0
78000601E0
FC000603F0
F8000C01F0
F8001801F0
F8001801F0
F8003001F0
F8006001F0
F800C001F0
F800C001F0
F8018001F0
F8030001F0
F8030001F0
F8060001F0
F80C0001F0
FC0C0003F0
78180001E0
7E300007E0
3C300003C0
3F60000FC0
1FC0001F80
0FE0007F00
07F801FE00
03FFFFFC00
06FFFFF000
0C3FFFC000
0C0BFD0000
ENDCHAR
STARTCHAR charB0
ENCODING 176
SWIDTH 885 0
DWIDTH 46 0
BBX 40 17 3 9
VVECTOR 23 43
SWIDTH1 0 -1000
DWIDTH1 0 -52
BITMAP 
01F0000F80
07FC003FE0
1FFF00FFF8
3F1F81F8FC
7C07C3E03E
7803E7C01E
F001FF800F
F000FF000F
F0007E000F
F000FF000F
F001FF800F
7803E7C01E
7C07C3E03E
3F1F81F8FC
1FFF00FFF8
07FC003FE0
01F0000F80
ENDCHAR
STARTCHAR charB1
ENCODING 177
SWIDTH 885 0
DWIDTH 46 0
BBX 38 31 4 0
VVECTOR 23 43
SWIDTH1 0 -1000
DWIDTH1 0 -52
BITMAP 
0000780000
0000780000
0000780000
0000780000
0000780000
0000780000
0000780000
0000780000
0000780000
0000780000
0000780000
FFFFB7FFFC
FFFFFFFFFC
FFFFB7FFFC
0000780000
0000780000
0000780000
0000780000
0000780000
0000780000
0000780000
0000780000
0000780000
0000780000
0000780000
0000000000
0000000000
0000000000
FFFFFFFFFC
FFFFFFFFFC
FFFFFFFFFC
ENDCHAR
STARTCHAR charB2
ENCODING 178
SWIDTH 615 0
DWIDTH 32 0
BBX 26 29 3 0
VVECTOR 16 43
SWIDTH1 0 -1000
DWIDTH1 0 -52
BITMAP 
0001E000
0003C000
00078000
000F0000
001E0000
003C0000
00780000
00F00000
01E00000
03C00000
07800000
0F000000
07800000
03C00000
01E00000
00F00000
00780000
003C0000
001E0000
000F0000
00078000
0003C000
0001E000
00000000
00000000
00000000
FFFFFFC0
FFFFFFC0
FFFFFFC0
ENDCHAR
STARTCHAR charB3
ENCODING 179
SWIDTH 615 0
DWIDTH 32 0
BBX 26 29 3 0
VVECTOR 16 43
SWIDTH1 0 -1000
DWIDTH1 0 -52
BITMAP 
01E00000
00F00000
00780000
003C0000
001E0000
000F0000
00078000
0003C000
0001E000
0000F000
00007800
00003C00
00007800
0000F000
0001E000
0003C000
00078000
000F0000
001E0000
003C0000
00780000
00F00000
01E00000
00000000
00000000
00000000
FFFFFFC0
FFFFFFC0
FFFFFFC0
ENDCHAR
STARTCHAR charB4
ENCODING 180
SWIDTH 615 0
DWIDTH 32 0
BBX 29 36 1 0
VVECTOR 16 43
SWIDTH1 0 -1000
DWIDTH1 0 -52
BITMAP 
F80000F8
F80000F8
7C0001F0
7C0001F0
3E0003E0
1F0007C0
1F0007C0
0F800F80
07C01F00
07C01F00
03E03E00
01F07C00
01F07C00
00F8F800
7F7DF7F0
7FFDFFF0
7FFFFFF0
001FC000
001FC000
000F8000
000F8000
000F8000
7FF77FF0
7FFFFFF0
7FFFFFF0
000F8000
000F8000
000F8000
000F8000
000F8000
000F8000
000F8000
000F8000
000F8000
000F8000
000F8000
ENDCHAR
STARTCHAR charB5
ENCODING 181
SWIDTH 615 0
DWIDTH 32 0
BBX 26 30 4 -5
VVECTOR 17 43
SWIDTH1 0 -1000
DWIDTH1 0 -52
BITMAP 
F800F800
F800F800
F800F800
F800F800
F800F800
F800F800
F800F800
F800F800
F800F800
F800F800
F800F800
F800F800
F800F800
F800F800
F800F800
F800F800
F800F800
F800F800
F800F800
FC01F800
FF07FC00
FFFFFFC0
F7FFDFC0
FBFF0FC0
F8FC03C0
F8000000
F8000000
F8000000
F8000000
F8000000
ENDCHAR
STARTCHAR charB6
ENCODING 182
SWIDTH 615 0
DWIDTH 32 0
BBX 24 37 4 0
VVECTOR 16 43
SWIDTH1 0 -1000
DWIDTH1 0 -52
BITMAP 
00FD00
00FFC0
00FFF0
00FFF8
0001FC
00007E
00003E
00003F
00001E
00001F
00001F
00001F
00BC1F
03FF1F
0FFFDF
1FFFEF
3F81FF
3E007F
7C003F
7C003F
F8001F
F8001F
F8001F
F8001F
F8001F
F8001F
F8001F
F8001F
F8001F
7C003E
7C003E
3E007C
3F81FC
1FFFF8
0FFFF0
03FFC0
00BD00
ENDCHAR
STARTCHAR charB7
ENCODING 183
SWIDTH 885 0
DWIDTH 46 0
BBX 38 46 4 -7
VVECTOR 23 43
SWIDTH1 0 -1000
DWIDTH1 0 -52
BITMAP 
FFFFFFFF00
FFFFFFFF80
FBFFFFFFC0
7C000003E0
3E000001F0
1F000000F8
0F8000007C
07C0000000
03E0000000
01F0000000
00F8000000
007C000000
003E000000
001F000000
000F800000
0007C00000
0003E00000
0001F00000
0000F80000
00007C0000
00003E0000
00001F0000
00000F8000
00000F8000
00001F0000
00003E0000
00007C0000
0000F80000
0001F00000
0003E00000
0007C00000
000F800000
001F000000
003E000000
007C000000
00F8000000
01F0000000
03E0000000
07C0000000
0F8000007C
1F000000F8
3E000001F0
7C000003E0
FBFFFFFFC0
FFFFFFFF80
FFFFFFFF00
ENDCHAR
STARTCHAR charB8
ENCODING 184
SWIDTH 885 0
DWIDTH 46 0
BBX 40 36 3 0
VVECTOR 23 43
SWIDTH1 0 -1000
DWIDTH1 0 -52
BITMAP 
FFFFFFFFFF
FFFFFFFFFF
FFFFFFFFFF
FFFDFFBFFF
003E007C00
003E007C00
003E007C00
003E007C00
003E007C00
003E007C00
003E007C00
003E007C00
003E007C00
003E007C00
003E007C00
003E007C00
003E007C00
003E007C00
003E007C00
003E007C00
003E007C00
003E007C00
003E007C00
003E007C00
003E007C00
003E007C00
003E007C00
003E007C00
003E007C00
003E007C00
003E007C00
003E007C00
003E007C00
003E007C00
003E007C00
003E007C00
ENDCHAR
STARTCHAR charB9
ENCODING 185
SWIDTH 885 0
DWIDTH 46 0
BBX 37 25 4 0
VVECTOR 23 43
SWIDTH1 0 -1000
DWIDTH1 0 -52
BITMAP 
1FFFFFFFF8
7FFFFFFFF8
FFFFFFFFF8
FFFDFEFFF8
E03E01F000
C03E01F000
803E01F000
003E01F000
007C01F000
007C01F000
007C01F000
007C01F000
00F801F000
00F801F000
00F801F000
00F801F000
01F001F000
01F001F000
01F001F000
01F001F000
03E001F000
03E001F000
03E001F000
03E001F000
01C000E000
ENDCHAR
STARTCHAR charBA
ENCODING 186
SWIDTH 346 0
DWIDTH 18 0
BBX 14 46 2 -7
VVECTOR 9 43
SWIDTH1 0 -1000
DWIDTH1 0 -52
BITMAP 
007C
01FC
03FC
03C0
0780
0780
0780
0780
0780
0780
0780
0780
0780
0780
0780
0780
0780
0780
0780
0780
0780
0780
0780
0780
0780
0780
0780
0780
0780
0780
0780
0780
0780
0780
0780
0780
0780
0780
0780
0780
0780
0780
0F00
FF00
FE00
F800
ENDCHAR
STARTCHAR charBB
ENCODING 187
SWIDTH 538 0
DWIDTH 28 0
BBX 22 32 2 2
VVECTOR 13 43
SWIDTH1 0 -1000
DWIDTH1 0 -52
BITMAP 
00FE00
03FF80
0FFFE0
1FFFF0
3F03F8
7E00F8
7C00FC
7C007C
00007C
00007C
0003FC
001FFC
00FFBC
03FC7C
0FE07C
3F807C
7E007C
FC007C
F8007C
F800FC
F803FC
7C0FBC
7FFF7C
1FFC7C
07F07C
000000
000000
000000
000000
FFFFFC
FFFFFC
FFFFFC
ENDCHAR
STARTCHAR charBC
ENCODING 188
SWIDTH 577 0
DWIDTH 30 0
BBX 26 33 2 2
VVECTOR 15 43
SWIDTH1 0 -1000
DWIDTH1 0 -52
BITMAP 
005E8000
01FFE000
07FFF800
0FFFFC00
1FC0FE00
3F003F00
3E001F00
7C000F80
7C000F80
F80007C0
F80007C0
F80007C0
F80007C0
F80007C0
F80007C0
F80007C0
F80007C0
7C000F80
7C000F80
3E001F00
3F003F00
1FC0FE00
0FFFFC00
07FFF800
01FFE000
005E8000
00000000
00000000
00000000
00000000
7FFFFF80
7FFFFF80
7FFFFF80
ENDCHAR
STARTCHAR charBD
ENCODING 189
SWIDTH 885 0
DWIDTH 46 0
BBX 35 36 6 0
VVECTOR 24 43
SWIDTH1 0 -1000
DWIDTH1 0 -52
BITMAP 
003FFF8000
00FFFFE000
03FFFFF800
0FFFFFFE00
1FE000FF00
3F80003F80
3E00000F80
7C000007C0
7C000007C0
F8000003E0
F8000003E0
F8000003E0
F8000003E0
F8000003E0
F8000003E0
F8000003E0
F8000003E0
F8000003E0
7C000007C0
7C000007C0
3E00000F80
3E00000F80
1F00001F00
0F80003E00
0F80003E00
07C0007C00
03E000F800
03E000F800
01F001F000
01F001F000
80F803E020
C0F803E060
FF7C07DFE0
7FFC07FFC0
7FFC07FFC0
3FFC07FF80
ENDCHAR
STARTCHAR charBE
ENCODING 190
SWIDTH 885 0
DWIDTH 46 0
BBX 42 26 2 0
VVECTOR 23 43
SWIDTH1 0 -1000
DWIDTH1 0 -52
BITMAP 
00BA00168000
03FF807FE000
0FFFE1FFF800
1FFFF7FFFC00
3F01FFE0FE00
7E007F803F00
7C007F001F00
7C003F000F80
00003E000F80
00003E0007C0
0001FE0007C0
000FFE0007C0
007FDDFFFBC0
03FE3FFFFFC0
0FF03DFFFFC0
3F803E000000
7E003E000000
FC003E000000
F8003F000F80
F8003F000F80
F8007F801F00
FC01EFE07F00
7E07C7FFFE00
7FFF81FFFC00
1FFE007FF000
07F800174000
ENDCHAR
STARTCHAR charBF
ENCODING 191
SWIDTH 577 0
DWIDTH 30 0
BBX 26 26 2 0
VVECTOR 15 43
SWIDTH1 0 -1000
DWIDTH1 0 -52
BITMAP 
005E8000
01FFE0C0
07FFF980
0FFFFF00
1FC0FE00
3F003F00
3E001F00
7C003F80
7C006F80
F800C7C0
F80187C0
F80307C0
F80607C0
F80C07C0
F81807C0
F83007C0
F86007C0
7CC00F80
7D800F80
3F001F00
3F003F00
1FC0FE00
1FFFFC00
37FFF800
61FFE000
C05E8000
ENDCHAR
STARTCHAR charC0
ENCODING 192
SWIDTH 615 0
DWIDTH 32 0
BBX 25 35 4 0
VVECTOR 17 43
SWIDTH1 0 -1000
DWIDTH1 0 -52
BITMAP 
003E0000
003E0000
003E0000
003E0000
00000000
00000000
00000000
00000000
003E0000
003E0000
003E0000
003E0000
003C0000
007E0000
00FC0000
01F80000
03F00000
07E00000
0FC00000
1F800000
3F000000
7E000000
7C000000
F8000000
F8000F80
F8000F80
F8000F80
FC001F00
7C001F00
7E003E00
3F80FE00
1FFFFC00
07FFF000
01FFC000
007F0000
ENDCHAR
STARTCHAR charC1
ENCODING 193
SWIDTH 346 0
DWIDTH 18 0
BBX 5 36 6 0
VVECTOR 9 43
SWIDTH1 0 -1000
DWIDTH1 0 -52
BITMAP 
F8
F8
F8
F8
00
00
00
00
F8
F8
F8
F8
F8
F8
F8
F8
F8
F8
F8
F8
F8
F8
F8
F8
F8
F8
F8
F8
F8
F8
F8
F8
F8
F8
F8
F8
ENDCHAR
STARTCHAR charC2
ENCODING 194
SWIDTH 885 0
DWIDTH 46 0
BBX 38 10 4 9
VVECTOR 23 43
SWIDTH1 0 -1000
DWIDTH1 0 -52
BITMAP 
FFFFFFFFFC
FFFFFFFFFC
FFFFFFFFDC
000000003C
000000003C
000000003C
000000003C
000000003C
000000003C
000000003C
ENDCHAR
STARTCHAR charC3
ENCODING 195
SWIDTH 885 0
DWIDTH 46 0
BBX 42 46 2 -7
VVECTOR 23 43
SWIDTH1 0 -1000
DWIDTH1 0 -52
BITMAP 
000000007FC0
000000007FC0
00000000EFC0
00000000F000
00000001E000
00000001E000
00000003C000
00000003C000
000000078000
000000078000
0000000F0000
0000000F0000
0000001E0000
0000001E0000
0000003C0000
0000003C0000
000000780000
000000780000
000000F00000
000000F00000
000001E00000
000001E00000
000003C00000
000003C00000
000007800000
000007800000
00000F000000
00000F000000
00001E000000
00001E000000
00003C000000
00003C000000
000078000000
000078000000
0000F0000000
0000F0000000
FE01E0000000
FF01E0000000
FF83C0000000
03C3C0000000
01E780000000
00F780000000
007F00000000
003F00000000
001E00000000
000E00000000
ENDCHAR
STARTCHAR charC4
ENCODING 196
SWIDTH 615 0
DWIDTH 32 0
BBX 21 39 5 -5
VVECTOR 16 43
SWIDTH1 0 -1000
DWIDTH1 0 -52
BITMAP 
0003F8
000FF8
001FF8
003FF8
007F00
007C00
00FC00
00F800
00F800
00F800
00F800
00F800
00F800
7F77F0
7FFFF0
7FFFF0
7F77F0
00F800
00F800
00F800
00F800
00F800
00F800
00F800
00F800
00F800
00F800
00F800
00F800
00F800
00F800
00F800
01F800
01F000
07F000
FFE000
FFC000
FF8000
FE0000
ENDCHAR
STARTCHAR charC5
ENCODING 197
SWIDTH 885 0
DWIDTH 46 0
BBX 38 13 4 11
VVECTOR 23 43
SWIDTH1 0 -1000
DWIDTH1 0 -52
BITMAP 
0FFF80000C
3FFFF0001C
7FFFFE003C
F001FFFFF8
E0003FFFF0
C00007FFC0
0000000000
0FFF80000C
3FFFF0001C
7FFFFE003C
F001FFFFF8
E0003FFFF0
C00007FFC0
ENDCHAR
STARTCHAR charC6
ENCODING 198
SWIDTH 885 0
DWIDTH 46 0
BBX 40 36 3 0
VVECTOR 23 43
SWIDTH1 0 -1000
DWIDTH1 0 -52
BITMAP 
00003C0000
00007E0000
00007E0000
0000FF0000
0000DF0000
0001CF8000
00038F8000
000387C000
000707C000
000703E000
000E03E000
000E01F000
001C01F000
001C00F800
003800F800
0038007C00
0070003E00
0070003E00
00E0001F00
00E0001F00
01C0000F80
01C0000F80
03800007C0
03800007C0
07000003E0
07000003E0
0E000001F0
0E000001F0
1C000000F8
1C000000F8
380000007C
380000007C
700000003E
6FFFFFFFDE
FFFFFFFFFF
FFFFFFFFFF
ENDCHAR
STARTCHAR charC7
ENCODING 199
SWIDTH 615 0
DWIDTH 32 0
BBX 24 17 4 8
VVECTOR 16 43
SWIDTH1 0 -1000
DWIDTH1 0 -52
BITMAP 
00F00F
01E01E
03C03C
078078
0F00F0
1E01E0
3C03C0
780780
F00F00
780780
3C03C0
1E01E0
0F00F0
078078
03C03C
01E01E
00F00F
ENDCHAR
STARTCHAR charC8
ENCODING 200
SWIDTH 615 0
DWIDTH 32 0
BBX 24 17 4 8
VVECTOR 16 43
SWIDTH1 0 -1000
DWIDTH1 0 -52
BITMAP 
F00F00
780780
3C03C0
1E01E0
0F00F0
078078
03C03C
01E01E
00F00F
01E01E
03C03C
078078
0F00F0
1E01E0
3C03C0
780780
F00F00
ENDCHAR
STARTCHAR charC9
ENCODING 201
SWIDTH 885 0
DWIDTH 46 0
BBX 40 4 3 0
VVECTOR 23 43
SWIDTH1 0 -1000
DWIDTH1 0 -52
BITMAP 
F8003E001F
F8003E001F
F8003E001F
F8003E001F
ENDCHAR
STARTCHAR charCA
ENCODING 202
SWIDTH 346 0
DWIDTH 18 0
BBX 0 0 3 -9
VVECTOR 3 -9
SWIDTH1 0 0
DWIDTH1 0 0
BITMAP 
ENDCHAR
STARTCHAR charCB
ENCODING 203
SWIDTH 692 0
DWIDTH 36 0
BBX 34 43 1 0
VVECTOR 18 43
SWIDTH1 0 -1000
DWIDTH1 0 -52
BITMAP 
000F000000
0007800000
0003C00000
0001E00000
0000000000
0000000000
0000000000
0003F00000
0003F00000
0007F80000
0007F80000
000FFC0000
000FFC0000
001F3E0000
001F3E0000
003E1F0000
003E1F0000
007C0F8000
007C0F8000
007C0F8000
00F807C000
00F807C000
01F003E000
01F003E000
01F003E000
03E001F000
03E001F000
07DFFEF800
07FFFFF800
07FFFFFC00
0FFFFFFC00
0F80007C00
1F00003E00
1F00003E00
1F00003E00
3E00001F00
3E00001F00
7C00000F80
7C00000F80
7C00000F80
F8000007C0
F8000007C0
F8000007C0
ENDCHAR
STARTCHAR charCC
ENCODING 204
SWIDTH 692 0
DWIDTH 36 0
BBX 34 43 1 0
VVECTOR 18 43
SWIDTH1 0 -1000
DWIDTH1 0 -52
BITMAP 
000F00C000
003FC1C000
0073F38000
00E0FF0000
00C03C0000
0000000000
0000000000
0003F00000
0003F00000
0007F80000
0007F80000
000FFC0000
000FFC0000
001F3E0000
001F3E0000
003E1F0000
003E1F0000
007C0F8000
007C0F8000
007C0F8000
00F807C000
00F807C000
01F003E000
01F003E000
01F003E000
03E001F000
03E001F000
07DFFEF800
07FFFFF800
07FFFFFC00
0FFFFFFC00
0F80007C00
1F00003E00
1F00003E00
1F00003E00
3E00001F00
3E00001F00
7C00000F80
7C00000F80
7C00000F80
F8000007C0
F8000007C0
F8000007C0
ENDCHAR
STARTCHAR charCD
ENCODING 205
SWIDTH 808 0
DWIDTH 42 0
BBX 36 43 3 0
VVECTOR 21 43
SWIDTH1 0 -1000
DWIDTH1 0 -52
BITMAP 
0007806000
001FE0E000
0039F9C000
00707F8000
00601E0000
0000000000
0000000000
000BFD0000
003FFFC000
00FFFFF000
03FFFFFC00
07F801FE00
0FE0007F00
1F80001F80
3F00000FC0
3C000003C0
7E000007E0
78000001E0
FC000003F0
F8000001F0
F8000001F0
F8000001F0
F8000001F0
F8000001F0
F8000001F0
F8000001F0
F8000001F0
F8000001F0
F8000001F0
F8000001F0
F8000001F0
FC000003F0
78000001E0
7E000007E0
3C000003C0
3F00000FC0
1F80001F80
0FE0007F00
07F801FE00
03FFFFFC00
00FFFFF000
003FFFC000
000BFD0000
ENDCHAR
STARTCHAR charCE
ENCODING 206
SWIDTH 1173 0
DWIDTH 61 0
BBX 56 36 3 0
VVECTOR 31 43
SWIDTH1 0 -1000
DWIDTH1 0 -52
BITMAP 
000BFD03FFFFFF
003FFFC3FFFFFF
00FFFFF3FFFFFF
03FFFFFBFFFFFF
07F801FDE00000
0FE0007FE00000
1F80001FE00000
3F00000FE00000
3C000007E00000
7E000003E00000
78000003E00000
FC000003E00000
F8000003E00000
F8000003E00000
F8000003E00000
F8000003FFFFFC
F8000003FFFFFC
F8000003FFFFFC
F8000003FFFFFC
F8000003E00000
F8000003E00000
F8000003E00000
F8000003E00000
F8000003E00000
FC000003E00000
78000003E00000
7E000003E00000
3C000007E00000
3F00000FE00000
1F80001FE00000
0FE0007FE00000
07F801FDE00000
03FFFFFBFFFFFF
00FFFFF3FFFFFF
003FFFC3FFFFFF
000BFD03FFFFFF
ENDCHAR
STARTCHAR charCF
ENCODING 207
SWIDTH 962 0
DWIDTH 50 0
BBX 46 26 2 0
VVECTOR 25 43
SWIDTH1 0 -1000
DWIDTH1 0 -52
BITMAP 
005E8002E800
01FFE00FFE00
07FFF83FFF80
0FFFFC7FFFC0
1FC0FEFE0FE0
3F003EF803F0
3E001FF001F0
7C000FE000F8
7C000FE000F8
F80007C0007C
F80007C0007C
F80007C0007C
F80007BFFFBC
F80007FFFFFC
F80007FFFFFC
F80007C00000
F80007C00000
7C000FE00000
7C000FE000F8
3E001FF000F8
3F003FF801F0
1FC0FEFE07E0
0FFFFC7FFFC0
07FFF83FFF80
01FFF00FFE00
005E8002E800
ENDCHAR
STARTCHAR charD0
ENCODING 208
SWIDTH 327 0
DWIDTH 17 0
BBX 13 3 2 16
VVECTOR 9 43
SWIDTH1 0 -1000
DWIDTH1 0 -52
BITMAP 
FFF8
FFF8
FFF8
ENDCHAR
STARTCHAR charD1
ENCODING 209
SWIDTH 885 0
DWIDTH 46 0
BBX 46 3 0 16
VVECTOR 23 43
SWIDTH1 0 -1000
DWIDTH1 0 -52
BITMAP 
FFFFFFFFFFFC
FFFFFFFFFFFC
FFFFFFFFFFFC
ENDCHAR
STARTCHAR charD2
ENCODING 210
SWIDTH 462 0
DWIDTH 24 0
BBX 18 9 3 28
VVECTOR 12 43
SWIDTH1 0 -1000
DWIDTH1 0 -52
BITMAP 
1F07C0
1F07C0
3E0F80
3E0F80
7C1F00
7C1F00
FC3F00
FC3F00
FC3F00
ENDCHAR
STARTCHAR charD3
ENCODING 211
SWIDTH 462 0
DWIDTH 24 0
BBX 18 9 3 28
VVECTOR 12 43
SWIDTH1 0 -1000
DWIDTH1 0 -52
BITMAP 
3F0FC0
3F0FC0
3F0FC0
3E0F80
3E0F80
7C1F00
7C1F00
F83E00
F83E00
ENDCHAR
STARTCHAR charD4
ENCODING 212
SWIDTH 269 0
DWIDTH 14 0
BBX 8 9 3 28
VVECTOR 7 43
SWIDTH1 0 -1000
DWIDTH1 0 -52
BITMAP 
1F
1F
3E
3E
7C
7C
FC
FC
FC
ENDCHAR
STARTCHAR charD5
ENCODING 213
SWIDTH 269 0
DWIDTH 14 0
BBX 8 9 3 28
VVECTOR 7 43
SWIDTH1 0 -1000
DWIDTH1 0 -52
BITMAP 
3F
3F
3F
3E
3E
7C
7C
F8
F8
ENDCHAR
STARTCHAR charD6
ENCODING 214
SWIDTH 885 0
DWIDTH 46 0
BBX 38 27 4 4
VVECTOR 23 43
SWIDTH1 0 -1000
DWIDTH1 0 -52
BITMAP 
0000780000
0000FC0000
0000FC0000
0000FC0000
0000FC0000
0000780000
0000000000
0000000000
0000000000
0000000000
0000000000
0000000000
FFFFFFFFFC
FFFFFFFFFC
FFFFFFFFFC
0000000000
0000000000
0000000000
0000000000
0000000000
0000000000
0000780000
0000FC0000
0000FC0000
0000FC0000
0000FC0000
0000780000
ENDCHAR
STARTCHAR charD7
ENCODING 215
SWIDTH 885 0
DWIDTH 46 0
BBX 31 31 7 2
VVECTOR 23 43
SWIDTH1 0 -1000
DWIDTH1 0 -52
BITMAP 
00010000
00038000
0007C000
000FE000
001EF000
003C7800
00783C00
00F01E00
01E00F00
03C00780
078003C0
0F0001E0
1E0000F0
3C000078
7800003C
F000001E
7800003C
3C000078
1E0000F0
0F0001E0
078003C0
03C00780
01E00F00
00F01E00
00783C00
003C7800
001EF000
000FE000
0007C000
00038000
00010000
ENDCHAR
STARTCHAR charD8
ENCODING 216
SWIDTH 38 0
DWIDTH 2 0
BBX 0 0 1 -9
VVECTOR 1 -9
SWIDTH1 0 0
DWIDTH1 0 0
BITMAP 
ENDCHAR
STARTCHAR missing
ENCODING -1
SWIDTH 615 0
DWIDTH 32 0
BBX 28 40 2 -3
VVECTOR 16 43
SWIDTH1 0 -1000
DWIDTH1 0 -52
BITMAP 
FFFFFFF0
FFFFFFF0
FFFFFFF0
FF801FF0
FC0003F0
F00001F0
E00000F0
E0000070
C0000070
C03F8030
C07FC030
C07FC030
C07FC030
C07FC030
FFFF8030
FFFF0070
FFFE0070
FFFC00F0
FFF801F0
FFF003F0
FFE007F0
FFE00FF0
FFC01FF0
FFC03FF0
FFC07FF0
FFC07FF0
FFC07FF0
FFFFFFF0
FFFFFFF0
FFFFFFF0
FFFFFFF0
FFC07FF0
FFC07FF0
FFC07FF0
FFC07FF0
FFC07FF0
FFC07FF0
FFFFFFF0
FFFFFFF0
FFFFFFF0
ENDCHAR
ENDFONT
